# Made in Blockbench 4.10.4
mtllib face.mtl

o sphere
v 0.31698729810778065 0.25000000000000006 -0.31698729810778065
v 0.36602540378443865 3.061616997868383e-17 -0.3660254037844386
v 0.3169872981077807 -0.2499999999999999 -0.31698729810778065
v 0.11602540378443875 0.25000000000000006 -0.43301270189221924
v 0.1339745962155615 3.061616997868383e-17 -0.4999999999999999
v 0.11602540378443876 -0.2499999999999999 -0.4330127018922193
v -0.11602540378443846 0.25000000000000006 -0.43301270189221935
v -0.13397459621556113 3.061616997868383e-17 -0.5
v -0.11602540378443847 -0.2499999999999999 -0.4330127018922194
v -0.31698729810778065 0.25000000000000006 -0.3169872981077807
v -0.3660254037844386 3.061616997868383e-17 -0.3660254037844387
v -0.31698729810778065 -0.2499999999999999 -0.31698729810778076
v 0.18301270189221927 0.43301270189221935 -0.18301270189221924
v 0.18301270189221927 -0.43301270189221935 -0.18301270189221924
v 0.06698729810778072 0.43301270189221935 -0.2499999999999999
v 0.06698729810778072 -0.43301270189221935 -0.2499999999999999
v -0.06698729810778055 0.43301270189221935 -0.24999999999999997
v -0.06698729810778055 -0.43301270189221935 -0.24999999999999997
v -0.18301270189221924 0.43301270189221935 -0.1830127018922193
v -0.18301270189221924 -0.43301270189221935 -0.1830127018922193
vt 0.06578493020360317 0.7802948870046587
vt 0 0.49248333333333283
vt 0.3112976320958219 0.49248333333333283
vt 0.33537658773652707 0.7802948870046587
vt 0 0.49248333333333283
vt 0.06578493020360317 0.20467177966200722
vt 0.33537658773652707 0.20467177966200722
vt 0.3112976320958219 0.49248333333333283
vt 0.33537658773652707 0.7802948870046587
vt 0.3112976320958219 0.49248333333333283
vt 0.6707531754730542 0.49248333333333283
vt 0.6466742198323497 0.7802948870046587
vt 0.3112976320958219 0.49248333333333283
vt 0.33537658773652707 0.20467177966200722
vt 0.6466742198323497 0.20467177966200722
vt 0.6707531754730542 0.49248333333333283
vt 0.6466742198323497 0.7802948870046587
vt 0.6707531754730542 0.49248333333333283
vt 0.9820508075688773 0.49248333333333283
vt 0.916265877365274 0.7802948870046587
vt 0.6707531754730542 0.49248333333333283
vt 0.6466742198323497 0.20467177966200722
vt 0.916265877365274 0.20467177966200722
vt 0.9820508075688773 0.49248333333333283
vt 0.2455127018922192 0.9909875672974061
vt 0.06578493020360317 0.7802948870046587
vt 0.33537658773652707 0.7802948870046587
vt 0.4011615179401305 0.9909875672974061
vt 0.06578493020360317 0.20467177966200722
vt 0.2455127018922192 -0.0060209006307401225
vt 0.4011615179401305 -0.0060209006307401225
vt 0.33537658773652707 0.20467177966200722
vt 0.4011615179401305 0.9909875672974061
vt 0.33537658773652707 0.7802948870046587
vt 0.6466742198323497 0.7802948870046587
vt 0.5808892896287462 0.9909875672974061
vt 0.33537658773652707 0.20467177966200722
vt 0.4011615179401305 -0.0060209006307401225
vt 0.5808892896287462 -0.0060209006307401225
vt 0.6466742198323497 0.20467177966200722
vt 0.5808892896287462 0.9909875672974061
vt 0.6466742198323497 0.7802948870046587
vt 0.916265877365274 0.7802948870046587
vt 0.7365381056766575 0.9909875672974061
vt 0.6466742198323497 0.20467177966200722
vt 0.5808892896287462 -0.0060209006307401225
vt 0.7365381056766575 -0.0060209006307401225
vt 0.916265877365274 0.20467177966200722
vn 0.48296291314453427 0.2588190451025208 -0.836516303737808
vn 0.4829629131445343 -0.2588190451025208 -0.8365163037378078
vn 4.0022255066204975e-16 0.2588190451025207 -0.9659258262890683
vn 4.621371947209864e-16 -0.25881904510252063 -0.9659258262890684
vn -0.48296291314453377 0.25881904510252063 -0.8365163037378082
vn -0.482962913144534 -0.25881904510252046 -0.836516303737808
vn 0.35355339059327373 0.7071067811865477 -0.6123724356957944
vn 0.3535533905932739 -0.7071067811865475 -0.6123724356957947
vn 3.466028960407396e-16 0.7071067811865477 -0.7071067811865475
vn 4.0022255066204975e-16 -0.7071067811865476 -0.7071067811865476
vn -0.3535533905932735 0.7071067811865477 -0.6123724356957946
vn -0.3535533905932737 -0.7071067811865474 -0.6123724356957947
usemtl m_fe34a2e6-3afd-3e74-6c36-26134cb5fc45
f 1/1/1 2/2/1 5/3/1 4/4/1
f 2/5/2 3/6/2 6/7/2 5/8/2
f 4/9/3 5/10/3 8/11/3 7/12/3
f 5/13/4 6/14/4 9/15/4 8/16/4
f 7/17/5 8/18/5 11/19/5 10/20/5
f 8/21/6 9/22/6 12/23/6 11/24/6
f 13/25/7 1/26/7 4/27/7 15/28/7
f 3/29/8 14/30/8 16/31/8 6/32/8
f 15/33/9 4/34/9 7/35/9 17/36/9
f 6/37/10 16/38/10 18/39/10 9/40/10
f 17/41/11 7/42/11 10/43/11 19/44/11
f 9/45/12 18/46/12 20/47/12 12/48/12