# Made in Blockbench 4.10.4
mtllib head.mtl

o sphere
v 0 -0.5 0
v 0 0.5 0
v 0.06698729810778065 0.43301270189221935 0.24999999999999994
v 0.11602540378443862 0.25000000000000006 0.4330127018922193
v 0.13397459621556132 3.061616997868383e-17 0.49999999999999994
v 0.11602540378443864 -0.2499999999999999 0.43301270189221935
v 0.06698729810778065 -0.43301270189221935 0.24999999999999994
v 0.18301270189221924 0.43301270189221935 0.18301270189221927
v 0.31698729810778065 0.25000000000000006 0.31698729810778065
v 0.3660254037844386 3.061616997868383e-17 0.36602540378443865
v 0.31698729810778065 -0.2499999999999999 0.3169872981077807
v 0.18301270189221924 -0.43301270189221935 0.18301270189221927
v 0.24999999999999994 0.43301270189221935 0.06698729810778065
v 0.4330127018922193 0.25000000000000006 0.11602540378443862
v 0.49999999999999994 3.061616997868383e-17 0.13397459621556132
v 0.43301270189221935 -0.2499999999999999 0.11602540378443864
v 0.24999999999999994 -0.43301270189221935 0.06698729810778065
v 0.24999999999999994 0.43301270189221935 -0.06698729810778067
v 0.4330127018922193 0.25000000000000006 -0.11602540378443868
v 0.49999999999999994 3.061616997868383e-17 -0.13397459621556138
v 0.43301270189221935 -0.2499999999999999 -0.1160254037844387
v 0.24999999999999994 -0.43301270189221935 -0.06698729810778067
v 0.18301270189221927 0.43301270189221935 -0.18301270189221924
v 0.31698729810778065 0.25000000000000006 -0.31698729810778065
v 0.36602540378443865 3.061616997868383e-17 -0.3660254037844386
v 0.3169872981077807 -0.2499999999999999 -0.31698729810778065
v 0.18301270189221927 -0.43301270189221935 -0.18301270189221924
v 0.06698729810778072 0.43301270189221935 -0.2499999999999999
v 0.11602540378443875 0.25000000000000006 -0.43301270189221924
v 0.1339745962155615 3.061616997868383e-17 -0.4999999999999999
v 0.11602540378443876 -0.2499999999999999 -0.4330127018922193
v 0.06698729810778072 -0.43301270189221935 -0.2499999999999999
v -0.06698729810778055 0.43301270189221935 -0.24999999999999997
v -0.11602540378443846 0.25000000000000006 -0.43301270189221935
v -0.13397459621556113 3.061616997868383e-17 -0.5
v -0.11602540378443847 -0.2499999999999999 -0.4330127018922194
v -0.06698729810778055 -0.43301270189221935 -0.24999999999999997
v -0.18301270189221924 0.43301270189221935 -0.1830127018922193
v -0.31698729810778065 0.25000000000000006 -0.3169872981077807
v -0.3660254037844386 3.061616997868383e-17 -0.3660254037844387
v -0.31698729810778065 -0.2499999999999999 -0.31698729810778076
v -0.18301270189221924 -0.43301270189221935 -0.1830127018922193
v -0.24999999999999994 0.43301270189221935 -0.06698729810778062
v -0.4330127018922193 0.25000000000000006 -0.11602540378443858
v -0.49999999999999994 3.061616997868383e-17 -0.13397459621556126
v -0.43301270189221935 -0.2499999999999999 -0.1160254037844386
v -0.24999999999999994 -0.43301270189221935 -0.06698729810778062
v -0.24999999999999997 0.43301270189221935 0.06698729810778054
v -0.43301270189221935 0.25000000000000006 0.11602540378443843
v -0.5 3.061616997868383e-17 0.1339745962155611
v -0.4330127018922194 -0.2499999999999999 0.11602540378443844
v -0.24999999999999997 -0.43301270189221935 0.06698729810778054
v -0.1830127018922193 0.43301270189221935 0.18301270189221922
v -0.3169872981077807 0.25000000000000006 0.3169872981077806
v -0.3660254037844387 3.061616997868383e-17 0.36602540378443854
v -0.31698729810778076 -0.2499999999999999 0.3169872981077806
v -0.1830127018922193 -0.43301270189221935 0.18301270189221922
v -0.06698729810778063 0.43301270189221935 0.24999999999999994
v -0.1160254037844386 0.25000000000000006 0.4330127018922193
v -0.1339745962155613 3.061616997868383e-17 0.49999999999999994
v -0.11602540378443861 -0.2499999999999999 0.43301270189221935
v -0.06698729810778063 -0.43301270189221935 0.24999999999999994
vt 0.4970482672561053 0.8223384406577715
vt 0.5263365843785555 0.8385873104399222
vt 0.48030139225610524 0.8870446906577715
vt 0.4970482672561053 0.8223384406577715
vt 0.5093076422561053 0.7576321906577714
vt 0.5632996458119635 0.7788527869800758
vt 0.5282207674775925 0.8345902372200672
vt 0.5273390794394377 0.4095136423705137
vt 0.5139625 0.3460462998405722
vt 0.5803087071252735 0.33679935675973116
vt 0.5847962071252735 0.40150560675973124
vt 0.5139625 0.3460462998405722
vt 0.509475 0.28134004984057215
vt 0.5669321276858359 0.2733320142297898
vt 0.5803087071252735 0.33679935675973127
vt 0.509475 0.28134004984057215
vt 0.5126849723418807 0.21556097154042053
vt 0.5458580759045175 0.2109375
vt 0.5669321276858359 0.2733320142297898
vt 0.5265039421224502 0.13797518956007782
vt 0.49721562499999994 0.1542240593422285
vt 0.48046875 0.08951780934222842
vt 0.5263365843785555 0.8385873104399222
vt 0.5440646605321042 0.8670046749369418
vt 0.48030139225610524 0.8870446906577715
vt 0.5282207674775925 0.8345902372200672
vt 0.5632996458119635 0.7788527869800758
vt 0.6057874327492894 0.8183526365673641
vt 0.5527512620043248 0.857395634110638
vt 0.15739129287472653 0.6202556067597312
vt 0.1618787928747265 0.5555493567597312
vt 0.228225 0.5647962998405722
vt 0.2148484205605623 0.6282636423705136
vt 0.1618787928747265 0.5555493567597312
vt 0.1752553723141641 0.4920820142297897
vt 0.2327125 0.5000900498405721
vt 0.228225 0.5647962998405722
vt 0.574914345791504 0.1826252050253876
vt 0.5265039421224502 0.13797518956007782
vt 0.544232018275999 0.10955782506305811
vt 0.6056200750053946 0.13340520553642743
vt 0.544232018275999 0.10955782506305811
vt 0.5265039421224502 0.13797518956007782
vt 0.48046875 0.08951780934222842
vt 0.5440646605321042 0.8670046749369418
vt 0.545780666088129 0.9004544374771182
vt 0.48030139225610524 0.8870446906577715
vt 0.5770031250000001 0.9375
vt 0.56474375 0.875
vt 0.62275625 0.875
vt 0.6104968749999999 0.9375
vt 0.2327125 0.6295025498405722
vt 0.228225 0.5647962998405722
vt 0.2952125 0.5647962998405722
vt 0.290725 0.6295025498405722
vt 0.228225 0.5647962998405722
vt 0.2327125 0.5000900498405721
vt 0.290725 0.5000900498405721
vt 0.2952125 0.5647962998405722
vt 0.2327125 0.5000900498405721
vt 0.24497187500000006 0.4353837998405722
vt 0.27846562500000005 0.4353837998405722
vt 0.290725 0.5000900498405721
vt 0.5459480238320237 0.07610806252288171
vt 0.544232018275999 0.10955782506305811
vt 0.48046875 0.08951780934222842
vt 0.545780666088129 0.9004544374771182
vt 0.5310536820731874 0.9305367783249671
vt 0.48030139225610524 0.8870446906577715
vt 0.4080188802517805 0.75
vt 0.35498270950681593 0.7109570024567261
vt 0.3974704964441418 0.6714571528694377
vt 0.4325493747785128 0.7271946031094292
vt 0.3085890794394377 0.6282636423705136
vt 0.2952125 0.5647962998405722
vt 0.3615587071252735 0.5555493567597312
vt 0.36604620712527347 0.6202556067597311
vt 0.2952125 0.5647962998405722
vt 0.290725 0.5000900498405721
vt 0.3481821276858359 0.4920820142297897
vt 0.3615587071252735 0.5555493567597312
vt 0.290725 0.5000900498405721
vt 0.2939349723418807 0.43431097154042053
vt 0.3271080759045175 0.4296875
vt 0.3481821276858359 0.4920820142297897
vt 0.5312210398170821 0.04602572167503283
vt 0.5459480238320237 0.07610806252288171
vt 0.48046875 0.08951780934222842
vt 0.5310536820731874 0.9305367783249671
vt 0.5035819114513301 0.9496974961602299
vt 0.48030139225610524 0.8870446906577715
vt 0.4325493747785128 0.7271946031094292
vt 0.3974704964441418 0.6714571528694377
vt 0.4514625 0.6502365565471335
vt 0.46372187500000006 0.7149428065471335
vt 0.37614129287472653 0.6202556067597312
vt 0.3806287928747265 0.5555493567597313
vt 0.446975 0.5647962998405722
vt 0.4335984205605623 0.6282636423705137
vt 0.3806287928747265 0.5555493567597313
vt 0.39400537231416416 0.4920820142297898
vt 0.4514625 0.5000900498405721
vt 0.446975 0.5647962998405722
vt 0.39400537231416416 0.4920820142297898
vt 0.4150794240954826 0.4296875
vt 0.4482525276581193 0.43431097154042053
vt 0.4514625 0.5000900498405721
vt 0.5037492691952249 0.026865003839769974
vt 0.5312210398170821 0.04602572167503283
vt 0.48046875 0.08951780934222853
vt 0.490338788759358 0.953125
vt 0.4570208730608804 0.9496974961602299
vt 0.48030139225610524 0.8870446906577715
vt 0.46372187500000006 0.7149428065471335
vt 0.4514625 0.6502365565471335
vt 0.509475 0.6502365565471335
vt 0.49721562499999994 0.7149428065471335
vt 0.4514625 0.6295025498405722
vt 0.446975 0.5647962998405722
vt 0.5139625 0.5647962998405722
vt 0.509475 0.6295025498405722
vt 0.446975 0.5647962998405722
vt 0.4514625 0.5000900498405721
vt 0.509475 0.5000900498405721
vt 0.5139625 0.5647962998405722
vt 0.4514625 0.5000900498405721
vt 0.46372187500000006 0.4353837998405722
vt 0.49721562499999994 0.4353837998405722
vt 0.509475 0.5000900498405721
vt 0.47043135349674725 0.0234375
vt 0.5037492691952249 0.026865003839769974
vt 0.48046875 0.08951780934222853
vt 0.4570208730608804 0.9496974961602299
vt 0.4295491024390231 0.9305367783249671
vt 0.48030139225610524 0.8870446906577715
vt 0.49721562499999994 0.7149428065471335
vt 0.509475 0.6502365565471335
vt 0.5634670035558582 0.6714571528694377
vt 0.5283881252214873 0.7271946031094292
vt 0.5273390794394377 0.6282636423705137
vt 0.5139625 0.5647962998405722
vt 0.5803087071252735 0.5555493567597312
vt 0.5847962071252735 0.6202556067597312
vt 0.5139625 0.5647962998405722
vt 0.509475 0.5000900498405721
vt 0.5669321276858359 0.4920820142297898
vt 0.5803087071252735 0.5555493567597313
vt 0.509475 0.5000900498405721
vt 0.5126849723418807 0.43431097154042053
vt 0.5458580759045175 0.4296875
vt 0.5669321276858359 0.4920820142297898
vt 0.42971646018291787 0.04602572167503283
vt 0.4571882308047751 0.026865003839769974
vt 0.48046875 0.08951780934222853
vt 0.4295491024390231 0.9305367783249671
vt 0.41482211842408157 0.9004544374771182
vt 0.4803013922561053 0.8870446906577715
vt 0.5283881252214873 0.7271946031094292
vt 0.5634670035558582 0.6714571528694377
vt 0.6059547904931841 0.7109570024567261
vt 0.5529186197482194 0.75
vt 0.5948912928747265 0.6202556067597312
vt 0.5993787928747265 0.5555493567597313
vt 0.665725 0.5647962998405722
vt 0.6523484205605623 0.6282636423705137
vt 0.5993787928747265 0.5555493567597313
vt 0.6127553723141641 0.4920820142297898
vt 0.6702125 0.5000900498405721
vt 0.665725 0.5647962998405722
vt 0.6127553723141641 0.4920820142297898
vt 0.6338294240954826 0.4296875
vt 0.6670025276581193 0.43431097154042053
vt 0.6702125 0.5000900498405721
vt 0.4149894761679763 0.07610806252288171
vt 0.42971646018291787 0.04602572167503283
vt 0.48046875 0.08951780934222842
vt 0.41482211842408157 0.9004544374771182
vt 0.41653812398010626 0.8670046749369418
vt 0.4803013922561053 0.8870446906577715
vt 0.350440625 0.9375
vt 0.33818125 0.875
vt 0.39619375 0.875
vt 0.383934375 0.9375
vt 0.6702125 0.6295025498405722
vt 0.665725 0.5647962998405722
vt 0.7327125 0.5647962998405722
vt 0.728225 0.6295025498405722
vt 0.665725 0.5647962998405722
vt 0.6702125 0.5000900498405721
vt 0.728225 0.5000900498405721
vt 0.7327125 0.5647962998405722
vt 0.6702125 0.5000900498405721
vt 0.6824718750000001 0.4353837998405722
vt 0.715965625 0.4353837998405722
vt 0.728225 0.5000900498405721
vt 0.416705481724001 0.10955782506305811
vt 0.4149894761679763 0.07610806252288171
vt 0.48046875 0.08951780934222842
vt 0.41653812398010626 0.8670046749369418
vt 0.434266200133655 0.8385873104399222
vt 0.4803013922561053 0.8870446906577715
vt 0.41653812398010626 0.8670046749369418
vt 0.3551500672507107 0.8431572944635725
vt 0.3858557964646013 0.7939372949746124
vt 0.434266200133655 0.8385873104399221
vt 0.7460890794394377 0.6282636423705137
vt 0.7327125 0.5647962998405722
vt 0.7990587071252735 0.5555493567597312
vt 0.8035462071252735 0.6202556067597312
vt 0.7327125 0.5647962998405722
vt 0.728225 0.5000900498405721
vt 0.7856821276858359 0.4920820142297898
vt 0.7990587071252735 0.5555493567597313
vt 0.3553174249946054 0.13340520553642743
vt 0.416705481724001 0.10955782506305811
vt 0.4344335578775498 0.13797518956007782
vt 0.386023154208496 0.18262520502538748
vt 0.4344335578775498 0.13797518956007782
vt 0.416705481724001 0.10955782506305811
vt 0.48046875 0.08951780934222842
vt 0.434266200133655 0.8385873104399222
vt 0.4635545172561053 0.8223384406577715
vt 0.48030139225610524 0.8870446906577715
vt 0.434266200133655 0.8385873104399222
vt 0.392155063188275 0.7879529030708161
vt 0.4428835870790351 0.7598092178090281
vt 0.4635545172561053 0.8223384406577715
vt 0.37614129287472653 0.40150560675973124
vt 0.3806287928747265 0.33679935675973127
vt 0.446975 0.3460462998405722
vt 0.4335984205605623 0.4095136423705137
vt 0.3806287928747265 0.33679935675973127
vt 0.3940053723141641 0.2733320142297898
vt 0.4514625 0.28134004984057215
vt 0.446975 0.3460462998405722
vt 0.3940053723141641 0.2733320142297898
vt 0.4150794240954826 0.2109375
vt 0.4482525276581193 0.21556097154042053
vt 0.4514625 0.28134004984057215
vt 0.46372187500000006 0.1542240593422285
vt 0.4344335578775498 0.13797518956007782
vt 0.48046875 0.08951780934222842
vt 0.4635545172561053 0.8223384406577715
vt 0.4970482672561053 0.8223384406577715
vt 0.48030139225610524 0.8870446906577715
vt 0.4635545172561053 0.8223384406577715
vt 0.4512951422561053 0.7576321906577714
vt 0.5093076422561053 0.7576321906577714
vt 0.4970482672561053 0.8223384406577715
vt 0.4514625 0.4107525498405722
vt 0.446975 0.3460462998405722
vt 0.5139625 0.3460462998405722
vt 0.509475 0.4107525498405722
vt 0.446975 0.3460462998405722
vt 0.4514625 0.28134004984057215
vt 0.509475 0.28134004984057215
vt 0.5139625 0.3460462998405722
vt 0.4514625 0.28134004984057215
vt 0.46372187500000006 0.21663379984057218
vt 0.49721562499999994 0.21663379984057218
vt 0.509475 0.28134004984057215
vt 0.49721562499999994 0.1542240593422285
vt 0.46372187500000006 0.1542240593422285
vt 0.48046875 0.08951780934222842
vn 0.12940952255126043 0.9659258262890683 0.22414386804201333
vn 0.35355339059327373 0.7071067811865477 0.6123724356957945
vn 0.48296291314453405 0.2588190451025207 0.836516303737808
vn 0.48296291314453427 -0.2588190451025205 0.8365163037378079
vn 0.3535533905932741 -0.7071067811865475 0.6123724356957946
vn 0.12940952255126043 -0.9659258262890683 0.22414386804201333
vn 0.22414386804201336 0.9659258262890683 0.12940952255126045
vn 0.6123724356957944 0.7071067811865478 0.3535533905932736
vn 0.8365163037378079 0.2588190451025208 0.48296291314453405
vn 0.8365163037378078 -0.25881904510252074 0.48296291314453427
vn 0.6123724356957945 -0.7071067811865475 0.353553390593274
vn 0.22414386804201336 -0.9659258262890683 0.12940952255126045
vn 0.2588190451025207 0.9659258262890683 0
vn 0.7071067811865475 0.7071067811865476 0
vn 0.9659258262890683 0.25881904510252063 0
vn 0.9659258262890683 -0.2588190451025205 0
vn 0.7071067811865476 -0.7071067811865475 0
vn 0.2588190451025207 -0.9659258262890683 0
vn 0.22414386804201333 0.9659258262890683 -0.12940952255126045
vn 0.6123724356957944 0.7071067811865477 -0.3535533905932738
vn 0.836516303737808 0.25881904510252063 -0.48296291314453416
vn 0.8365163037378078 -0.2588190451025205 -0.4829629131445344
vn 0.6123724356957945 -0.7071067811865474 -0.3535533905932741
vn 0.22414386804201333 -0.9659258262890683 -0.12940952255126045
vn 0.1294095225512604 0.9659258262890683 -0.22414386804201333
vn 0.35355339059327373 0.7071067811865477 -0.6123724356957944
vn 0.48296291314453427 0.2588190451025208 -0.836516303737808
vn 0.4829629131445343 -0.2588190451025208 -0.8365163037378078
vn 0.3535533905932739 -0.7071067811865475 -0.6123724356957947
vn 0.1294095225512604 -0.9659258262890683 -0.22414386804201333
vn 1.608589638639305e-16 0.9659258262890683 -0.2588190451025207
vn 3.466028960407396e-16 0.7071067811865477 -0.7071067811865475
vn 4.0022255066204975e-16 0.2588190451025207 -0.9659258262890683
vn 4.621371947209864e-16 -0.25881904510252063 -0.9659258262890684
vn 4.0022255066204975e-16 -0.7071067811865476 -0.7071067811865476
vn 1.6085896386393055e-16 -0.9659258262890683 -0.25881904510252074
vn -0.12940952255126034 0.9659258262890683 -0.2241438680420134
vn -0.3535533905932735 0.7071067811865477 -0.6123724356957946
vn -0.48296291314453377 0.25881904510252063 -0.8365163037378082
vn -0.482962913144534 -0.25881904510252046 -0.836516303737808
vn -0.3535533905932737 -0.7071067811865474 -0.6123724356957947
vn -0.12940952255126034 -0.9659258262890683 -0.2241438680420134
vn -0.22414386804201336 0.9659258262890683 -0.1294095225512604
vn -0.6123724356957945 0.7071067811865477 -0.3535533905932735
vn -0.836516303737808 0.25881904510252074 -0.4829629131445339
vn -0.8365163037378078 -0.25881904510252074 -0.48296291314453416
vn -0.6123724356957946 -0.7071067811865476 -0.3535533905932739
vn -0.22414386804201336 -0.9659258262890683 -0.1294095225512604
vn -0.2588190451025207 0.9659258262890683 -5.361965462131021e-17
vn -0.7071067811865474 0.7071067811865477 -2.310685973604933e-16
vn -0.9659258262890683 0.2588190451025207 -2.0011127533102507e-16
vn -0.9659258262890684 -0.2588190451025206 -2.3106859736049333e-16
vn -0.7071067811865477 -0.7071067811865474 -2.00111275331025e-16
vn -0.2588190451025207 -0.9659258262890683 -5.361965462131021e-17
vn -0.22414386804201336 0.9659258262890683 0.12940952255126034
vn -0.6123724356957946 0.7071067811865477 0.3535533905932736
vn -0.8365163037378082 0.25881904510252063 0.48296291314453377
vn -0.836516303737808 -0.2588190451025205 0.48296291314453405
vn -0.6123724356957948 -0.7071067811865475 0.3535533905932738
vn -0.22414386804201336 -0.9659258262890683 0.12940952255126034
vn -0.12940952255126045 0.9659258262890683 0.22414386804201333
vn -0.3535533905932738 0.7071067811865477 0.6123724356957944
vn -0.4829629131445341 0.2588190451025208 0.8365163037378079
vn -0.48296291314453443 -0.25881904510252085 0.8365163037378079
vn -0.353553390593274 -0.7071067811865475 0.6123724356957946
vn -0.12940952255126045 -0.9659258262890683 0.22414386804201333
vn 0 0.9659258262890683 0.2588190451025207
vn 0 0.7071067811865477 0.7071067811865475
vn 0 0.25881904510252063 0.9659258262890683
vn 0 -0.2588190451025205 0.9659258262890683
vn 0 -0.7071067811865474 0.7071067811865477
vn 0 -0.9659258262890683 0.2588190451025207
usemtl m_4e21d954-9768-ca24-ebfb-c6ecf81fe3b4
f 3/1/1 8/2/1 2/3/1
f 3/4/2 4/5/2 9/6/2 8/7/2
f 4/8/3 5/9/3 10/10/3 9/11/3
f 5/12/4 6/13/4 11/14/4 10/15/4
f 6/16/5 7/17/5 12/18/5 11/19/5
f 12/20/6 7/21/6 1/22/6
f 8/23/7 13/24/7 2/25/7
f 8/26/8 9/27/8 14/28/8 13/29/8
f 9/30/9 10/31/9 15/32/9 14/33/9
f 10/34/10 11/35/10 16/36/10 15/37/10
f 11/38/11 12/39/11 17/40/11 16/41/11
f 17/42/12 12/43/12 1/44/12
f 13/45/13 18/46/13 2/47/13
f 13/48/14 14/49/14 19/50/14 18/51/14
f 14/52/15 15/53/15 20/54/15 19/55/15
f 15/56/16 16/57/16 21/58/16 20/59/16
f 16/60/17 17/61/17 22/62/17 21/63/17
f 22/64/18 17/65/18 1/66/18
f 18/67/19 23/68/19 2/69/19
f 18/70/20 19/71/20 24/72/20 23/73/20
f 19/74/21 20/75/21 25/76/21 24/77/21
f 20/78/22 21/79/22 26/80/22 25/81/22
f 21/82/23 22/83/23 27/84/23 26/85/23
f 27/86/24 22/87/24 1/88/24
f 23/89/25 28/90/25 2/91/25
f 23/92/26 24/93/26 29/94/26 28/95/26
f 24/96/27 25/97/27 30/98/27 29/99/27
f 25/100/28 26/101/28 31/102/28 30/103/28
f 26/104/29 27/105/29 32/106/29 31/107/29
f 32/108/30 27/109/30 1/110/30
f 28/111/31 33/112/31 2/113/31
f 28/114/32 29/115/32 34/116/32 33/117/32
f 29/118/33 30/119/33 35/120/33 34/121/33
f 30/122/34 31/123/34 36/124/34 35/125/34
f 31/126/35 32/127/35 37/128/35 36/129/35
f 37/130/36 32/131/36 1/132/36
f 33/133/37 38/134/37 2/135/37
f 33/136/38 34/137/38 39/138/38 38/139/38
f 34/140/39 35/141/39 40/142/39 39/143/39
f 35/144/40 36/145/40 41/146/40 40/147/40
f 36/148/41 37/149/41 42/150/41 41/151/41
f 42/152/42 37/153/42 1/154/42
f 38/155/43 43/156/43 2/157/43
f 38/158/44 39/159/44 44/160/44 43/161/44
f 39/162/45 40/163/45 45/164/45 44/165/45
f 40/166/46 41/167/46 46/168/46 45/169/46
f 41/170/47 42/171/47 47/172/47 46/173/47
f 47/174/48 42/175/48 1/176/48
f 43/177/49 48/178/49 2/179/49
f 43/180/50 44/181/50 49/182/50 48/183/50
f 44/184/51 45/185/51 50/186/51 49/187/51
f 45/188/52 46/189/52 51/190/52 50/191/52
f 46/192/53 47/193/53 52/194/53 51/195/53
f 52/196/54 47/197/54 1/198/54
f 48/199/55 53/200/55 2/201/55
f 48/202/56 49/203/56 54/204/56 53/205/56
f 49/206/57 50/207/57 55/208/57 54/209/57
f 50/210/58 51/211/58 56/212/58 55/213/58
f 51/214/59 52/215/59 57/216/59 56/217/59
f 57/218/60 52/219/60 1/220/60
f 53/221/61 58/222/61 2/223/61
f 53/224/62 54/225/62 59/226/62 58/227/62
f 54/228/63 55/229/63 60/230/63 59/231/63
f 55/232/64 56/233/64 61/234/64 60/235/64
f 56/236/65 57/237/65 62/238/65 61/239/65
f 62/240/66 57/241/66 1/242/66
f 58/243/67 3/244/67 2/245/67
f 58/246/68 59/247/68 4/248/68 3/249/68
f 59/250/69 60/251/69 5/252/69 4/253/69
f 60/254/70 61/255/70 6/256/70 5/257/70
f 61/258/71 62/259/71 7/260/71 6/261/71
f 7/262/72 62/263/72 1/264/72