# Blender 4.5.3 LTS
# www.blender.org
mtllib fphand.mtl
o hand
v -0.095314 -0.016031 0.021697
v -0.059989 0.122865 0.116542
v -0.095314 0.261761 0.021697
v -0.134794 0.122865 0.030009
v -0.076436 0.261761 -0.054602
v 0.000000 0.261761 -0.088559
v 0.000000 0.122865 -0.125916
v 0.000000 -0.016031 -0.088559
v 0.076436 -0.016031 -0.054602
v 0.095314 0.261761 0.021697
v 0.095314 -0.016031 0.021697
v 0.000000 -0.055706 0.001628
v 0.134794 0.122865 0.030009
v 0.042419 -0.016031 0.082884
v -0.042419 -0.016031 0.082884
v 0.059989 0.122865 0.116542
v -0.076436 -0.016031 -0.054602
v -0.108096 0.122865 -0.077894
v 0.076436 0.261761 -0.054602
v 0.108096 0.122865 -0.077894
v 0.042419 0.261761 0.082884
v -0.042419 0.261761 0.082884
vn -0.7697 -0.4660 0.4364
vn -0.7695 -0.5180 -0.3736
vn -0.0007 -0.9052 -0.4251
vn 0.0090 0.2170 0.9761
vn -0.7322 0.2371 0.6385
vn 0.0022 0.2353 0.9719
vn -0.7324 0.2462 0.6349
vn -0.1879 -0.4833 -0.8551
vn -0.3910 -0.2278 -0.8918
vn -0.9384 0.2533 -0.2351
vn 0.5122 -0.4487 -0.7323
vn 0.1679 -0.4292 -0.8875
vn -0.3942 0.2387 -0.8875
vn 0.8670 -0.4972 -0.0328
vn 0.3910 0.2279 -0.8918
vn 0.3917 0.2383 -0.8887
vn 0.5199 -0.5112 0.6844
vn 0.7322 -0.2371 0.6385
vn 0.9394 0.2532 -0.2310
vn -0.1720 -0.4563 0.8731
vn -0.0090 -0.2169 0.9761
vn 0.7317 0.2465 0.6355
vt 1.000000 1.000000
vt 1.000000 0.937500
vt 0.000000 0.937500
vt 0.000000 1.000000
vt 1.000000 0.000000
vt 0.000000 0.000000
s 1
usemtl Material_0
f 15/1/1 1/2/2 12/3/3
f 15/1/1 2/2/4 4/3/5
f 15/1/1 4/3/5 1/4/2
f 2/1/4 22/5/6 3/6/7
f 2/1/4 3/6/7 4/4/5
f 1/1/2 17/2/8 12/3/3
f 1/1/2 4/2/5 18/3/9
f 1/1/2 18/3/9 17/4/8
f 4/1/5 3/5/7 5/6/10
f 4/1/5 5/6/10 18/4/9
f 17/1/8 8/2/11 12/3/3
f 17/1/8 18/2/9 7/3/12
f 17/1/8 7/3/12 8/4/11
f 18/1/9 5/5/10 6/6/13
f 18/1/9 6/6/13 7/4/12
f 8/1/11 9/2/14 12/3/3
f 8/1/11 7/2/12 20/3/15
f 8/1/11 20/3/15 9/4/14
f 7/1/12 6/5/13 19/6/16
f 7/1/12 19/6/16 20/4/15
f 9/1/14 11/2/17 12/3/3
f 9/1/14 20/2/15 13/3/18
f 9/1/14 13/3/18 11/4/17
f 20/1/15 19/5/16 10/6/19
f 20/1/15 10/6/19 13/4/18
f 11/1/17 14/2/20 12/3/3
f 11/1/17 13/2/18 16/3/21
f 11/1/17 16/3/21 14/4/20
f 13/1/18 10/5/19 21/6/22
f 13/1/18 21/6/22 16/4/21
f 14/1/20 15/2/1 12/3/3
f 14/1/20 16/2/21 2/3/4
f 14/1/20 2/3/4 15/4/1
f 16/1/21 21/5/22 22/6/6
f 16/1/21 22/6/6 2/4/4
