# Made in Blockbench 4.10.4
mtllib coconuttreebase.mtl

o stump
v 0.14480699133489225 2.6875 -0.023605053081840327
v 0.10139494691815967 2.6875 -0.20730699133489225
v 0.14024638169923231 0 0.045114833644219546
v 0.10761483364421946 0 -0.14024638169923231
v -0.03889494691815967 2.6875 0.01980699133489225
v -0.08230699133489225 2.6875 -0.16389494691815965
v -0.045114833644219574 0 0.07774638169923231
v -0.07774638169923231 0 -0.10761483364421955
v 0.1875 2.15 0.125
v 0.1875 2.15 -0.0625
v 0.16168959854839815 1.6124999999999998 0.14379062904197248
v 0.194321146603411 1.6124999999999998 -0.04157058630148007
v 0.11604006874004145 1.075 0.011702134356492963
v 0.14867161679505433 1.075 -0.1736590809869595
v 0.125 0.5375 0
v 0.125 0.5375 -0.1875
v 0 2.15 -0.0625
v 0.008959931259958545 1.6124999999999998 -0.07420213435649296
v -0.036689598548398164 1.075 -0.20629062904197248
v -0.0625 0.5375 -0.1875
v 0 2.15 0.125
v -0.023671616795054348 1.6124999999999998 0.11115908098695951
v -0.06932114660341099 1.075 -0.02092941369851993
v -0.0625 0.5375 0
vt 1 0.5
vt 1 0.6000000000000001
vt 0 0.6000000000000001
vt 0 0.5
vt 1 0.5
vt 1 0.6000000000000001
vt 0 0.6000000000000001
vt 0 0.5
vt 0 0
vt 1 0
vt 1 1
vt 0 1
vt 1 0
vt 1 1
vt 0 1
vt 0 0
vt 1 0.5
vt 1 0.6000000000000001
vt 0 0.6000000000000001
vt 0 0.5
vt 1 0.5
vt 1 0.6000000000000001
vt 0 0.6000000000000001
vt 0 0.5
vt 0 1
vt 0 0.9
vt 1 0.9
vt 1 1
vt 0 0.9
vt 0 0.8
vt 1 0.8
vt 1 0.9
vt 0 0.8
vt 0 0.7000000000000001
vt 1 0.7000000000000001
vt 1 0.8
vt 0 0.7000000000000001
vt 0 0.6000000000000001
vt 1 0.6000000000000001
vt 1 0.7000000000000001
vt 0 1
vt 0 0.9
vt 1 0.9
vt 1 1
vt 0 0.9
vt 0 0.8
vt 1 0.8
vt 1 0.9
vt 0 0.8
vt 0 0.7000000000000001
vt 1 0.7000000000000001
vt 1 0.8
vt 0 0.7000000000000001
vt 0 0.6000000000000001
vt 1 0.6000000000000001
vt 1 0.7000000000000001
vt 0 1
vt 0 0.9
vt 1 0.9
vt 1 1
vt 0 0.9
vt 0 0.8
vt 1 0.8
vt 1 0.9
vt 0 0.8
vt 0 0.7000000000000001
vt 1 0.7000000000000001
vt 1 0.8
vt 0 0.7000000000000001
vt 0 0.6000000000000001
vt 1 0.6000000000000001
vt 1 0.7000000000000001
vt 0 1
vt 0 0.9
vt 1 0.9
vt 1 1
vt 0 0.9
vt 0 0.8
vt 1 0.8
vt 1 0.9
vt 0 0.8
vt 0 0.7000000000000001
vt 1 0.7000000000000001
vt 1 0.8
vt 0 0.7000000000000001
vt 0 0.6000000000000001
vt 1 0.6000000000000001
vt 1 0.7000000000000001
vn 0.9994773268705115 -0.03232758994692964 0
vn -0.9994773268705115 -0.03232758994692944 0
vn 0 1 0
vn 0 -1 0
vn 0 0.08364046723053657 0.9964959971025762
vn 0 -0.14700879771051367 -0.989135184590918
vn 0.9968603766215858 0.07917947664559614 0
vn 0.9840194819217494 -0.041195984537242665 0.1732297608855347
vn 0.9770993204524395 -0.12525556578337688 0.17201151476476045
vn 0.9998610905077121 0.01666732398224426 0
vn 0 -0.26013335358973594 -0.965572699671111
vn 0.1732637769979231 -0.03612490662383632 -0.9842127080574775
vn 0.1690645735231743 0.22164597747413303 -0.9603594278440564
vn 0 0.025742013770757334 -0.9996686194569809
vn -0.988477951223508 -0.1513649230996936 0
vn -0.9847768434627193 -0.012641515651613738 -0.17336308909809234
vn -0.9770993204524395 0.1252555657833768 -0.1720115147647601
vn -0.9988490609834714 0.047964084192630554 0
vn 0 0.1920643002546003 0.9813823437211976
vn -0.17334971413421082 -0.017722226903143488 0.9847008679203959
vn -0.16906457352317414 -0.22164597747413306 0.9603594278440564
vn 0 0.03890895833407828 0.9992427597742989
usemtl none
f 4/1/1 16/2/1 15/3/1 3/4/1
f 7/5/2 24/6/2 20/7/2 8/8/2
f 5/9/3 1/10/3 2/11/3 6/12/3
f 4/13/4 3/14/4 7/15/4 8/16/4
f 3/17/5 15/18/5 24/19/5 7/20/5
f 8/21/6 20/22/6 16/23/6 4/24/6
f 1/25/7 9/26/7 10/27/7 2/28/7
f 9/29/8 11/30/8 12/31/8 10/32/8
f 11/33/9 13/34/9 14/35/9 12/36/9
f 13/37/10 15/38/10 16/39/10 14/40/10
f 2/41/11 10/42/11 17/43/11 6/44/11
f 10/45/12 12/46/12 18/47/12 17/48/12
f 12/49/13 14/50/13 19/51/13 18/52/13
f 14/53/14 16/54/14 20/55/14 19/56/14
f 6/57/15 17/58/15 21/59/15 5/60/15
f 17/61/16 18/62/16 22/63/16 21/64/16
f 18/65/17 19/66/17 23/67/17 22/68/17
f 19/69/18 20/70/18 24/71/18 23/72/18
f 5/73/19 21/74/19 9/75/19 1/76/19
f 21/77/20 22/78/20 11/79/20 9/80/20
f 22/81/21 23/82/21 13/83/21 11/84/21
f 23/85/22 24/86/22 15/87/22 13/88/22