# Blender 4.5.2 LTS
# www.blender.org
mtllib cube.mtl
o cube
v 0.062500 0.125000 0.062500
v 0.062500 0.125000 -0.062500
v 0.062500 0.000000 0.062500
v 0.062500 -0.000000 -0.062500
v -0.062500 0.125000 -0.062500
v -0.062500 0.125000 0.062500
v -0.062500 -0.000000 -0.062500
v -0.062500 0.000000 0.062500
vn 0.5774 -0.5774 -0.5774
vn -0.5774 -0.5774 -0.5774
vn -0.5774 0.5774 -0.5774
vn 0.5774 0.5774 -0.5774
vn 0.5774 -0.5774 0.5774
vn 0.5774 0.5774 0.5774
vn -0.5774 -0.5774 0.5774
vn -0.5774 0.5774 0.5774
vt 0.000000 0.500000
vt 0.333333 0.500000
vt 0.333333 1.000000
vt 0.000000 1.000000
vt 0.000000 0.000000
vt 0.333333 0.000000
vt 0.666667 0.500000
vt 1.000000 0.500000
vt 1.000000 1.000000
vt 0.666667 1.000000
vt 0.666667 0.000000
vt 1.000000 0.000000
s 1
usemtl m_4519e50d-9ee0-acda-b1f0-c4caa35c5234
f 4/1/1 7/2/2 5/3/3 2/4/4
f 3/5/5 4/6/1 2/2/4 1/1/6
f 8/7/7 3/8/5 1/9/6 6/10/8
f 7/2/2 8/7/7 6/10/8 5/3/3
f 6/6/8 1/11/6 2/7/4 5/2/3
f 7/7/2 4/8/1 3/12/5 8/11/7
