# Made in Blockbench 4.10.4
mtllib house.mtl

o cube
v -0.75 -0.0625 0.75
v -0.3125 -0.0625 0.75
v -0.3125 0 0.75
v -0.75 0 0.75
v -0.75 -0.0625 0.875
v -0.3125 -0.0625 0.875
v -0.3125 0 0.875
v -0.75 0 0.875
v 0.875 1.375 -0.6875
v 0.875 1.375 -0.8125
v 0.875 -0.0625 -0.6875
v 0.875 -0.0625 -0.8125
v -0.8125 1.375 -0.6875
v -0.8125 1.375 -0.8125
v -0.8125 -0.0625 -0.6875
v -0.8125 -0.0625 -0.8125
v -0.75 1.375 0.875
v -0.75 1.375 0.75
v -0.875 1.375 0.875
v -0.875 1.375 0.75
v -0.875 -0.0625 0.875
v -0.875 -0.0625 0.75
v -0.75 1.375 -0.8125
v -0.75 -0.0625 -0.8125
v -0.875 1.375 -0.8125
v -0.875 -0.0625 -0.8125
v 0.875 1.375 0.875
v 0.875 -0.0625 0.875
v 0.75 1.375 0.875
v 0.75 1.375 -0.8125
v 0.75 -0.0625 0.875
v 0.75 -0.0625 -0.8125
v 0.875 0.3124999999999999 0.875
v 0.875 0.3124999999999999 0.75
v 0.875 -0.0625 0.75
v -0.3125 0.3124999999999999 0.875
v -0.3125 0.3124999999999999 0.75
v 0.0625 0.8124999999999999 0.875
v 0.0625 0.8124999999999999 0.75
v 0.0625 -0.06250000000000006 0.875
v 0.0625 -0.06250000000000006 0.75
v -0.3125 0.8124999999999999 0.875
v -0.3125 0.8124999999999999 0.75
v 0.875 0.8124999999999999 0.875
v 0.875 0.8124999999999999 0.75
v 0.5 0.8124999999999999 0.875
v 0.5 0.8124999999999999 0.75
v 0.5 -0.06250000000000006 0.875
v 0.5 -0.06250000000000006 0.75
v 0.8125 0 0.75
v 0.8125 0 -0.75
v 0.8125 -0.0625 0.75
v 0.8125 -0.0625 -0.75
v -0.8125 0 0.75
v -0.8125 0 -0.75
v -0.8125 -0.0625 0.75
v -0.8125 -0.0625 -0.75
v 0.8125 1.3125 0.8125
v 0.8125 1.3125 -0.75
v 0.8125 1.25 0.8125
v 0.8125 1.25 -0.75
v -0.8125 1.3125 0.8125
v -0.8125 1.3125 -0.75
v -0.8125 1.25 0.8125
v -0.8125 1.25 -0.75
v 0.007918817546432422 2.2832936253926976 0.9375
v 0.007918817546432422 2.2832936253926976 -0.875
v 0.14050133901891027 2.1507111039202202 0.9375
v 0.14050133901891027 2.1507111039202202 -0.875
v -1.1853238757058664 1.0900509321403988 0.9375
v -1.1853238757058664 1.0900509321403988 -0.875
v -1.0527413542333888 0.9574684106679211 0.9375
v -1.0527413542333888 0.9574684106679211 -0.875
v -0.08046953010188806 2.106516930096061 0.9375
v -0.08046953010188806 2.106516930096061 -0.875
v 0.05211299137058978 2.2390994515685385 0.9375
v 0.05211299137058978 2.2390994515685385 -0.875
v 1.0685789893262516 0.9574684106679209 0.9375
v 1.0685789893262516 0.9574684106679209 -0.875
v 1.2011615107987295 1.0900509321403984 0.9375
v 1.2011615107987295 1.0900509321403984 -0.875
v 0.6875 1.5625 0.875
v 0.6875 1.5625 0.75
v 0.6875 1.3125 0.875
v 0.6875 1.3125 0.75
v -0.6875 1.5625 0.875
v -0.6875 1.5625 0.75
v -0.6875 1.3125 0.875
v -0.6875 1.3125 0.75
v 0.46875 1.8125 0.875
v 0.46875 1.8125 0.75
v 0.46875 1.5625 0.875
v 0.46875 1.5625 0.75
v -0.453125 1.8125 0.875
v -0.453125 1.8125 0.75
v -0.453125 1.5625 0.875
v -0.453125 1.5625 0.75
v 0.21875 2.0625 0.875
v 0.21875 2.0625 0.75
v 0.21875 1.8125 0.875
v 0.21875 1.8125 0.75
v -0.203125 2.0625 0.875
v -0.203125 2.0625 0.75
v -0.203125 1.8125 0.875
v -0.203125 1.8125 0.75
v -0.6875 1.3125 -0.6875
v 0.6875 1.5625 -0.6875
v 0.6875 1.5625 -0.8125
v 0.6875 1.3125 -0.6875
v 0.6875 1.3125 -0.8125
v -0.6875 1.5625 -0.6875
v -0.6875 1.5625 -0.8125
v -0.6875 1.3125 -0.8125
v 0.46875 1.8125 -0.6875
v 0.46875 1.8125 -0.8125
v 0.46875 1.5625 -0.6875
v 0.46875 1.5625 -0.8125
v -0.453125 1.8125 -0.6875
v -0.453125 1.8125 -0.8125
v -0.453125 1.5625 -0.6875
v -0.453125 1.5625 -0.8125
v 0.21875 2.0625 -0.6875
v 0.21875 2.0625 -0.8125
v 0.21875 1.8125 -0.6875
v 0.21875 1.8125 -0.8125
v -0.203125 2.0625 -0.6875
v -0.203125 2.0625 -0.8125
v -0.203125 1.8125 -0.6875
v -0.203125 1.8125 -0.8125
v 0.8125 1.375 0.875
v 0.8125 1.375 0.75
v 0.8125 0.6874999999999999 0.875
v 0.8125 0.6874999999999999 0.75
v -0.8125 1.375 0.875
v -0.8125 1.375 0.75
v -0.8125 0.6874999999999999 0.875
v -0.8125 0.6874999999999999 0.75
v -0.75 0.6874999999999999 0.875
v -0.75 0.6874999999999999 0.75
vt 1 0
vt 1 1
vt 0 1
vt 0 0
vt 1 0
vt 1 1
vt 0 1
vt 0 0
vt 1 0
vt 1 1
vt 0 1
vt 0 0
vt 1 0
vt 1 1
vt 0 1
vt 0 0
vt 1 0
vt 1 1
vt 0 1
vt 0 0
vt 1 0
vt 1 1
vt 0 1
vt 0 0
vt 1 0
vt 1 1
vt 0 1
vt 0 0
vt 1 0
vt 1 1
vt 0 1
vt 0 0
vt 1 0
vt 1 1
vt 0 1
vt 0 0
vt 1 0
vt 1 1
vt 0 1
vt 0 0
vt 1 0
vt 1 1
vt 0 1
vt 0 0
vt 1 0
vt 1 1
vt 0 1
vt 0 0
vt 1 0
vt 1 1
vt 0 1
vt 0 0
vt 1 0
vt 1 1
vt 0 1
vt 0 0
vt 1 0
vt 1 1
vt 0 1
vt 0 0
vt 1 0
vt 1 1
vt 0 1
vt 0 0
vt 1 0
vt 1 1
vt 0 1
vt 0 0
vt 1 0
vt 1 1
vt 0 1
vt 0 0
vt 1 0
vt 1 1
vt 0 1
vt 0 0
vt 1 0
vt 1 1
vt 0 1
vt 0 0
vt 1 0
vt 1 1
vt 0 1
vt 0 0
vt 1 0
vt 1 1
vt 0 1
vt 0 0
vt 1 0
vt 1 1
vt 0 1
vt 0 0
vt 1 0
vt 1 1
vt 0 1
vt 0 0
vt 1 0
vt 1 1
vt 0 1
vt 0 0
vt 1 0
vt 1 1
vt 0 1
vt 0 0
vt 1 0
vt 1 1
vt 0 1
vt 0 0
vt 1 0
vt 1 1
vt 0 1
vt 0 0
vt 1 0
vt 1 1
vt 0 1
vt 0 0
vt 1 0
vt 1 1
vt 0 1
vt 0 0
vt 1 0
vt 1 1
vt 0 1
vt 0 0
vt 1 0
vt 1 1
vt 0 1
vt 0 0
vt 1 0
vt 1 1
vt 0 1
vt 0 0
vt 1 0
vt 1 1
vt 0 1
vt 0 0
vt 1 0
vt 1 1
vt 0 1
vt 0 0
vt 1 0
vt 1 1
vt 0 1
vt 0 0
vt 1 0
vt 1 1
vt 0 1
vt 0 0
vt 1 0
vt 1 1
vt 0 1
vt 0 0
vt 1 0
vt 1 1
vt 0 1
vt 0 0
vt 1 0
vt 1 1
vt 0 1
vt 0 0
vt 1 0
vt 1 1
vt 0 1
vt 0 0
vt 1 0
vt 1 1
vt 0 1
vt 0 0
vt 1 0
vt 1 1
vt 0 1
vt 0 0
vt 1 0
vt 1 1
vt 0 1
vt 0 0
vt 1 0
vt 1 1
vt 0 1
vt 0 0
vt 1 0
vt 1 1
vt 0 1
vt 0 0
vt 1 0
vt 1 1
vt 0 1
vt 0 0
vt 1 0
vt 1 1
vt 0 1
vt 0 0
vt 1 0
vt 1 1
vt 0 1
vt 0 0
vt 1 0
vt 1 1
vt 0 1
vt 0 0
vt 1 0
vt 1 1
vt 0 1
vt 0 0
vt 1 0
vt 1 1
vt 0 1
vt 0 0
vt 1 0
vt 1 1
vt 0 1
vt 0 0
vt 1 0
vt 1 1
vt 0 1
vt 0 0
vt 1 0
vt 1 1
vt 0 1
vt 0 0
vt 1 0
vt 1 1
vt 0 1
vt 0 0
vt 1 0
vt 1 1
vt 0 1
vt 0 0
vt 1 0
vt 1 1
vt 0 1
vt 0 0
vt 1 0
vt 1 1
vt 0 1
vt 0 0
vt 1 0
vt 1 1
vt 0 1
vt 0 0
vt 1 0
vt 1 1
vt 0 1
vt 0 0
vt 1 0
vt 1 1
vt 0 1
vt 0 0
vt 1 0
vt 1 1
vt 0 1
vt 0 0
vt 1 0
vt 1 1
vt 0 1
vt 0 0
vt 1 0
vt 1 1
vt 0 1
vt 0 0
vt 1 0
vt 1 1
vt 0 1
vt 0 0
vt 1 0
vt 1 1
vt 0 1
vt 0 0
vt 1 0
vt 1 1
vt 0 1
vt 0 0
vt 1 0
vt 1 1
vt 0 1
vt 0 0
vt 1 0
vt 1 1
vt 0 1
vt 0 0
vt 1 0
vt 1 1
vt 0 1
vt 0 0
vt 1 0
vt 1 1
vt 0 1
vt 0 0
vt 1 0
vt 1 1
vt 0 1
vt 0 0
vt 1 0
vt 1 1
vt 0 1
vt 0 0
vt 1 0
vt 1 1
vt 0 1
vt 0 0
vt 1 0
vt 1 1
vt 0 1
vt 0 0
vt 1 0
vt 1 1
vt 0 1
vt 0 0
vt 1 0
vt 1 1
vt 0 1
vt 0 0
vt 1 0
vt 1 1
vt 0 1
vt 0 0
vt 1 0
vt 1 1
vt 0 1
vt 0 0
vt 1 0
vt 1 1
vt 0 1
vt 0 0
vt 1 0
vt 1 1
vt 0 1
vt 0 0
vt 1 0
vt 1 1
vt 0 1
vt 0 0
vt 1 0
vt 1 1
vt 0 1
vt 0 0
vt 1 0
vt 1 1
vt 0 1
vt 0 0
vt 1 0
vt 1 1
vt 0 1
vt 0 0
vt 1 0
vt 1 1
vt 0 1
vt 0 0
vt 1 0
vt 1 1
vt 0 1
vt 0 0
vt 1 0
vt 1 1
vt 0 1
vt 0 0
vt 1 0
vt 1 1
vt 0 1
vt 0 0
vt 1 0
vt 1 1
vt 0 1
vt 0 0
vt 1 0
vt 1 1
vt 0 1
vt 0 0
vt 1 0
vt 1 1
vt 0 1
vt 0 0
vt 1 0
vt 1 1
vt 0 1
vt 0 0
vt 1 0
vt 1 1
vt 0 1
vt 0 0
vt 1 0
vt 1 1
vt 0 1
vt 0 0
vt 1 0
vt 1 1
vt 0 1
vt 0 0
vt 1 0
vt 1 1
vt 0 1
vt 0 0
vt 1 0
vt 1 1
vt 0 1
vt 0 0
vt 1 0
vt 1 1
vt 0 1
vt 0 0
vt 1 0
vt 1 1
vt 0 1
vt 0 0
vt 1 0
vt 1 1
vt 0 1
vt 0 0
vt 1 0
vt 1 1
vt 0 1
vt 0 0
vt 1 0
vt 1 1
vt 0 1
vt 0 0
vt 1 0
vt 1 1
vt 0 1
vt 0 0
vt 1 0
vt 1 1
vt 0 1
vt 0 0
vt 1 0
vt 1 1
vt 0 1
vt 0 0
vt 1 0
vt 1 1
vt 0 1
vt 0 0
vt 1 0
vt 1 1
vt 0 1
vt 0 0
vt 1 0
vt 1 1
vt 0 1
vt 0 0
vt 1 0
vt 1 1
vt 0 1
vt 0 0
vt 1 0
vt 1 1
vt 0 1
vt 0 0
vt 1 0
vt 1 1
vt 0 1
vt 0 0
vt 1 0
vt 1 1
vt 0 1
vt 0 0
vt 1 0
vt 1 1
vt 0 1
vt 0 0
vt 1 0
vt 1 1
vt 0 1
vt 0 0
vt 1 0
vt 1 1
vt 0 1
vt 0 0
vt 1 0
vt 1 1
vt 0 1
vt 0 0
vn 1 0 0
vn -1 0 0
vn 0 1 0
vn 0 -1 0
vn 0 0 1
vn 0 0 -1
vn 1 0 0
vn -1 0 0
vn 0 1 0
vn 0 -1 0
vn 0 0 1
vn 1 0 0
vn -1 0 0
vn 0 1 0
vn 0 -1 0
vn 0 0 -1
vn 1 0 0
vn -1 0 0
vn 0 1 0
vn 0 -1 0
vn 0 0 1
vn 0 0 -1
vn 1 0 0
vn -1 0 0
vn 0 1 0
vn 0 -1 0
vn 0 0 1
vn 0 0 -1
vn 1 0 0
vn -1 0 0
vn 0 1 0
vn -1.4802973661668753e-16 -1 0
vn 0 0 1
vn 0 0 -1
vn 1 0 0
vn -1 0 0
vn 0 1 0
vn 1.4802973661668753e-16 -1 0
vn 0 0 1
vn 0 0 -1
vn 1 0 0
vn -1 0 0
vn 0 1 0
vn 0 -1 0
vn 0 0 1
vn 0 0 -1
vn 1 0 0
vn -1 0 0
vn 0 1 0
vn 0 -1 0
vn 0 0 1
vn 0 0 -1
vn 0.7071067811865464 0.7071067811865487 0
vn -0.7071067811865478 -0.7071067811865472 0
vn -0.7071067811865476 0.7071067811865476 0
vn 0.7071067811865476 -0.7071067811865475 0
vn 0 0 1
vn 0 0 -1
vn -0.7071067811865464 0.7071067811865487 0
vn 0.7071067811865467 -0.7071067811865485 0
vn -0.7071067811865477 -0.7071067811865474 0
vn 0.7071067811865477 0.7071067811865474 0
vn 0 0 1
vn 0 0 -1
vn 1 0 0
vn -1 0 0
vn 0 1 0
vn 0 -1 0
vn 0 0 1
vn 0 0 -1
vn 1 0 0
vn -1 0 0
vn 0 1 0
vn 0 -1 0
vn 0 0 1
vn 0 0 -1
vn 1 0 0
vn -1 0 0
vn 0 1 0
vn 0 -1 0
vn 0 0 1
vn 0 0 -1
vn 1 0 0
vn -1 0 0
vn 0 1 0
vn 0 -1 0
vn 0 0 1
vn 0 0 -1
vn 1 0 0
vn -1 0 0
vn 0 1 0
vn 0 -1 0
vn 0 0 1
vn 0 0 -1
vn 1 0 0
vn -1 0 0
vn 0 1 0
vn 0 -1 0
vn 0 0 1
vn 0 0 -1
vn 1 0 0
vn -1 0 0
vn 0 1 0
vn 0 -1 0
vn 0 0 1
vn 0 0 -1
vn 1 0 0
vn 0 1 0
vn 0 -1 0
vn 0 0 1
vn 0 0 -1
vn 1 0 0
vn 0 1 0
vn 0 -1 0
vn 0 0 1
vn 0 0 -1
vn 0 0 -1
vn -1 0 0
usemtl m_3a634aa2-0c6f-c486-320b-4c003cefbd71
f 12/1/1 10/2/1 9/3/1 11/4/1
f 15/5/2 13/6/2 14/7/2 16/8/2
f 9/9/3 10/10/3 14/11/3 13/12/3
f 12/13/4 11/14/4 15/15/4 16/16/4
usemtl m_02067d04-dc38-01e9-5421-bf0ff9561db9
f 11/17/5 9/18/5 13/19/5 15/20/5
usemtl m_3a634aa2-0c6f-c486-320b-4c003cefbd71
f 16/21/6 14/22/6 10/23/6 12/24/6
usemtl m_02067d04-dc38-01e9-5421-bf0ff9561db9
f 1/25/7 18/26/7 17/27/7 5/28/7
usemtl m_3a634aa2-0c6f-c486-320b-4c003cefbd71
f 21/29/8 19/30/8 20/31/8 22/32/8
f 17/33/9 18/34/9 20/35/9 19/36/9
f 1/37/10 5/38/10 21/39/10 22/40/10
f 5/41/11 17/42/11 19/43/11 21/44/11
usemtl m_02067d04-dc38-01e9-5421-bf0ff9561db9
f 24/45/12 23/46/12 18/47/12 1/48/12
usemtl m_3a634aa2-0c6f-c486-320b-4c003cefbd71
f 22/49/13 20/50/13 25/51/13 26/52/13
f 18/53/14 23/54/14 25/55/14 20/56/14
f 24/57/15 1/58/15 22/59/15 26/60/15
f 26/61/16 25/62/16 23/63/16 24/64/16
f 12/65/17 10/66/17 27/67/17 28/68/17
usemtl m_02067d04-dc38-01e9-5421-bf0ff9561db9
f 31/69/18 29/70/18 30/71/18 32/72/18
usemtl m_3a634aa2-0c6f-c486-320b-4c003cefbd71
f 27/73/19 10/74/19 30/75/19 29/76/19
f 12/77/20 28/78/20 31/79/20 32/80/20
f 28/81/21 27/82/21 29/83/21 31/84/21
f 32/85/22 30/86/22 10/87/22 12/88/22
f 35/89/23 34/90/23 33/91/23 28/92/23
usemtl m_02067d04-dc38-01e9-5421-bf0ff9561db9
f 6/93/24 36/94/24 37/95/24 2/96/24
f 33/97/25 34/98/25 37/99/25 36/100/25
usemtl m_3a634aa2-0c6f-c486-320b-4c003cefbd71
f 35/101/26 28/102/26 6/103/26 2/104/26
f 28/105/27 33/106/27 36/107/27 6/108/27
usemtl m_02067d04-dc38-01e9-5421-bf0ff9561db9
f 2/109/28 37/110/28 34/111/28 35/112/28
f 41/113/29 39/114/29 38/115/29 40/116/29
f 6/117/30 42/118/30 43/119/30 2/120/30
usemtl m_3a634aa2-0c6f-c486-320b-4c003cefbd71
f 38/121/31 39/122/31 43/123/31 42/124/31
f 41/125/32 40/126/32 6/127/32 2/128/32
f 40/129/33 38/130/33 42/131/33 6/132/33
usemtl m_02067d04-dc38-01e9-5421-bf0ff9561db9
f 2/133/34 43/134/34 39/135/34 41/136/34
usemtl m_3a634aa2-0c6f-c486-320b-4c003cefbd71
f 35/137/35 45/138/35 44/139/35 28/140/35
usemtl m_02067d04-dc38-01e9-5421-bf0ff9561db9
f 48/141/36 46/142/36 47/143/36 49/144/36
usemtl m_3a634aa2-0c6f-c486-320b-4c003cefbd71
f 44/145/37 45/146/37 47/147/37 46/148/37
f 35/149/38 28/150/38 48/151/38 49/152/38
f 28/153/39 44/154/39 46/155/39 48/156/39
usemtl m_02067d04-dc38-01e9-5421-bf0ff9561db9
f 49/157/40 47/158/40 45/159/40 35/160/40
f 53/161/41 51/162/41 50/163/41 52/164/41
f 56/165/42 54/166/42 55/167/42 57/168/42
usemtl m_bdc9040d-ca30-af10-3637-4c526ab82e1f
f 50/169/43 51/170/43 55/171/43 54/172/43
usemtl m_3a634aa2-0c6f-c486-320b-4c003cefbd71
f 53/173/44 52/174/44 56/175/44 57/176/44
usemtl m_02067d04-dc38-01e9-5421-bf0ff9561db9
f 52/177/45 50/178/45 54/179/45 56/180/45
f 57/181/46 55/182/46 51/183/46 53/184/46
usemtl m_3a634aa2-0c6f-c486-320b-4c003cefbd71
f 61/185/47 59/186/47 58/187/47 60/188/47
f 64/189/48 62/190/48 63/191/48 65/192/48
f 58/193/49 59/194/49 63/195/49 62/196/49
usemtl m_02067d04-dc38-01e9-5421-bf0ff9561db9
f 61/197/50 60/198/50 64/199/50 65/200/50
usemtl m_3a634aa2-0c6f-c486-320b-4c003cefbd71
f 60/201/51 58/202/51 62/203/51 64/204/51
f 65/205/52 63/206/52 59/207/52 61/208/52
usemtl m_bdc9040d-ca30-af10-3637-4c526ab82e1f
f 69/209/53 67/210/53 66/211/53 68/212/53
f 72/213/54 70/214/54 71/215/54 73/216/54
f 66/217/55 67/218/55 71/219/55 70/220/55
f 69/221/56 68/222/56 72/223/56 73/224/56
f 68/225/57 66/226/57 70/227/57 72/228/57
f 73/229/58 71/230/58 67/231/58 69/232/58
f 77/233/59 75/234/59 74/235/59 76/236/59
f 80/237/60 78/238/60 79/239/60 81/240/60
f 74/241/61 75/242/61 79/243/61 78/244/61
f 77/245/62 76/246/62 80/247/62 81/248/62
f 76/249/63 74/250/63 78/251/63 80/252/63
f 81/253/64 79/254/64 75/255/64 77/256/64
usemtl m_3a634aa2-0c6f-c486-320b-4c003cefbd71
f 2/257/65 3/258/65 7/259/65 6/260/65
f 5/261/66 8/262/66 4/263/66 1/264/66
usemtl m_bdc9040d-ca30-af10-3637-4c526ab82e1f
f 7/265/67 3/266/67 4/267/67 8/268/67
usemtl m_3a634aa2-0c6f-c486-320b-4c003cefbd71
f 2/269/68 6/270/68 5/271/68 1/272/68
f 6/273/69 7/274/69 8/275/69 5/276/69
f 1/277/70 4/278/70 3/279/70 2/280/70
f 85/281/71 83/282/71 82/283/71 84/284/71
f 88/285/72 86/286/72 87/287/72 89/288/72
f 82/289/73 83/290/73 87/291/73 86/292/73
usemtl m_02067d04-dc38-01e9-5421-bf0ff9561db9
f 85/293/74 84/294/74 88/295/74 89/296/74
usemtl m_3a634aa2-0c6f-c486-320b-4c003cefbd71
f 84/297/75 82/298/75 86/299/75 88/300/75
usemtl m_02067d04-dc38-01e9-5421-bf0ff9561db9
f 89/301/76 87/302/76 83/303/76 85/304/76
usemtl m_3a634aa2-0c6f-c486-320b-4c003cefbd71
f 93/305/77 91/306/77 90/307/77 92/308/77
f 96/309/78 94/310/78 95/311/78 97/312/78
f 90/313/79 91/314/79 95/315/79 94/316/79
usemtl m_02067d04-dc38-01e9-5421-bf0ff9561db9
f 93/317/80 92/318/80 96/319/80 97/320/80
usemtl m_3a634aa2-0c6f-c486-320b-4c003cefbd71
f 92/321/81 90/322/81 94/323/81 96/324/81
usemtl m_02067d04-dc38-01e9-5421-bf0ff9561db9
f 97/325/82 95/326/82 91/327/82 93/328/82
usemtl m_3a634aa2-0c6f-c486-320b-4c003cefbd71
f 101/329/83 99/330/83 98/331/83 100/332/83
f 104/333/84 102/334/84 103/335/84 105/336/84
f 98/337/85 99/338/85 103/339/85 102/340/85
usemtl m_02067d04-dc38-01e9-5421-bf0ff9561db9
f 101/341/86 100/342/86 104/343/86 105/344/86
usemtl m_3a634aa2-0c6f-c486-320b-4c003cefbd71
f 100/345/87 98/346/87 102/347/87 104/348/87
usemtl m_02067d04-dc38-01e9-5421-bf0ff9561db9
f 105/349/88 103/350/88 99/351/88 101/352/88
usemtl m_3a634aa2-0c6f-c486-320b-4c003cefbd71
f 110/353/89 108/354/89 107/355/89 109/356/89
f 106/357/90 111/358/90 112/359/90 113/360/90
f 107/361/91 108/362/91 112/363/91 111/364/91
f 110/365/92 109/366/92 106/367/92 113/368/92
f 109/369/93 107/370/93 111/371/93 106/372/93
f 113/373/94 112/374/94 108/375/94 110/376/94
f 117/377/95 115/378/95 114/379/95 116/380/95
f 120/381/96 118/382/96 119/383/96 121/384/96
f 114/385/97 115/386/97 119/387/97 118/388/97
f 117/389/98 116/390/98 120/391/98 121/392/98
f 116/393/99 114/394/99 118/395/99 120/396/99
f 121/397/100 119/398/100 115/399/100 117/400/100
f 125/401/101 123/402/101 122/403/101 124/404/101
f 128/405/102 126/406/102 127/407/102 129/408/102
f 122/409/103 123/410/103 127/411/103 126/412/103
f 125/413/104 124/414/104 128/415/104 129/416/104
f 124/417/105 122/418/105 126/419/105 128/420/105
f 129/421/106 127/422/106 123/423/106 125/424/106
f 133/425/107 131/426/107 130/427/107 132/428/107
f 130/429/108 131/430/108 135/431/108 134/432/108
usemtl m_02067d04-dc38-01e9-5421-bf0ff9561db9
f 133/433/109 132/434/109 136/435/109 137/436/109
usemtl m_3a634aa2-0c6f-c486-320b-4c003cefbd71
f 132/437/110 130/438/110 134/439/110 136/440/110
usemtl m_02067d04-dc38-01e9-5421-bf0ff9561db9
f 137/441/111 135/442/111 131/443/111 133/444/111
usemtl m_3a634aa2-0c6f-c486-320b-4c003cefbd71
f 139/445/112 18/446/112 17/447/112 138/448/112
f 17/449/113 18/450/113 135/451/113 134/452/113
f 139/453/114 138/454/114 136/455/114 137/456/114
f 138/457/115 17/458/115 134/459/115 136/460/115
usemtl m_02067d04-dc38-01e9-5421-bf0ff9561db9
f 137/461/116 135/462/116 18/463/116 139/464/116
usemtl m_3a634aa2-0c6f-c486-320b-4c003cefbd71
f 22/465/117 20/466/117 18/467/117 1/468/117
f 136/469/118 134/470/118 135/471/118 137/472/118