# Made in Blockbench 4.10.4
mtllib island.mtl

o cube
v 1.4375 1.571875 -3.25
v 1.4375 1.571875 -3.375
v 1.4375 0.13437500000000002 -3.25
v 1.4375 0.13437500000000002 -3.375
v 1.3125 1.571875 -3.375
v 1.3125 1.571875 -3.25
v 1.3125 0.13437500000000002 -3.375
v 1.3125 0.13437500000000002 -3.25
vt 0 1
vt 1 1
vt 1 0
vt 0 0
vt 0 1
vt 1 1
vt 1 0
vt 0 0
vt 0 1
vt 1 1
vt 1 0
vt 0 0
vt 0 1
vt 1 1
vt 1 0
vt 0 0
vt 0 1
vt 1 1
vt 1 0
vt 0 0
vt 0 1
vt 1 1
vt 1 0
vt 0 0
vn 0 0 -1
vn 1 0 0
vn 0 0 1
vn -1 0 0
vn 0 1 0
vn 0 -1 0
usemtl m_3a634aa2-0c6f-c486-320b-4c003cefbd71
f 4/4/1 7/3/1 5/2/1 2/1/1
usemtl m_02067d04-dc38-01e9-5421-bf0ff9561db9
f 3/8/2 4/7/2 2/6/2 1/5/2
usemtl m_3a634aa2-0c6f-c486-320b-4c003cefbd71
f 8/12/3 3/11/3 1/10/3 6/9/3
f 7/16/4 8/15/4 6/14/4 5/13/4
f 6/20/5 1/19/5 2/18/5 5/17/5
f 7/24/6 4/23/6 3/22/6 8/21/6
o cube
v 3.0625 1.571875 -3.25
v 3.0625 1.571875 -4.9375
v 3.0625 0.13437500000000002 -3.25
v 3.0625 0.13437500000000002 -4.9375
v 2.9375 1.571875 -4.9375
v 2.9375 1.571875 -3.25
v 2.9375 0.13437500000000002 -4.9375
v 2.9375 0.13437500000000002 -3.25
vt 0 1
vt 1 1
vt 1 0
vt 0 0
vt 0 1
vt 1 1
vt 1 0
vt 0 0
vt 0 1
vt 1 1
vt 1 0
vt 0 0
vt 0 1
vt 1 1
vt 1 0
vt 0 0
vt 0 1
vt 1 1
vt 1 0
vt 0 0
vt 0 1
vt 1 1
vt 1 0
vt 0 0
vn 0 0 -1
vn 1 0 0
vn 0 0 1
vn -1 0 0
vn 0 1 0
vn 0 -1 0
usemtl m_3a634aa2-0c6f-c486-320b-4c003cefbd71
f 12/28/7 15/27/7 13/26/7 10/25/7
f 11/32/8 12/31/8 10/30/8 9/29/8
f 16/36/9 11/35/9 9/34/9 14/33/9
usemtl m_02067d04-dc38-01e9-5421-bf0ff9561db9
f 15/40/10 16/39/10 14/38/10 13/37/10
usemtl m_3a634aa2-0c6f-c486-320b-4c003cefbd71
f 14/44/11 9/43/11 10/42/11 13/41/11
f 15/48/12 12/47/12 11/46/12 16/45/12
o cube
v 3.0625 0.5093749999999999 -3.25
v 3.0625 0.5093749999999999 -3.375
v 3.0625 0.13437500000000002 -3.25
v 3.0625 0.13437500000000002 -3.375
v 1.875 0.5093749999999999 -3.375
v 1.875 0.5093749999999999 -3.25
v 1.875 0.13437500000000002 -3.375
v 1.875 0.13437500000000002 -3.25
vt 0 1
vt 1 1
vt 1 0
vt 0 0
vt 0 1
vt 1 1
vt 1 0
vt 0 0
vt 0 1
vt 1 1
vt 1 0
vt 0 0
vt 0 1
vt 1 1
vt 1 0
vt 0 0
vt 0 1
vt 1 1
vt 1 0
vt 0 0
vt 0 1
vt 1 1
vt 1 0
vt 0 0
vn 0 0 -1
vn 1 0 0
vn 0 0 1
vn -1 0 0
vn 0 1 0
vn 0 -1 0
usemtl m_02067d04-dc38-01e9-5421-bf0ff9561db9
f 20/52/13 23/51/13 21/50/13 18/49/13
usemtl m_3a634aa2-0c6f-c486-320b-4c003cefbd71
f 19/56/14 20/55/14 18/54/14 17/53/14
f 24/60/15 19/59/15 17/58/15 22/57/15
usemtl m_02067d04-dc38-01e9-5421-bf0ff9561db9
f 23/64/16 24/63/16 22/62/16 21/61/16
f 22/68/17 17/67/17 18/66/17 21/65/17
usemtl m_3a634aa2-0c6f-c486-320b-4c003cefbd71
f 23/72/18 20/71/18 19/70/18 24/69/18
o cube
v 3.0625 1.571875 -4.8125
v 3.0625 1.571875 -4.9375
v 3.0625 0.13437500000000002 -4.8125
v 3.0625 0.13437500000000002 -4.9375
v 1.375 1.571875 -4.9375
v 1.375 1.571875 -4.8125
v 1.375 0.13437500000000002 -4.9375
v 1.375 0.13437500000000002 -4.8125
vt 0 1
vt 1 1
vt 1 0
vt 0 0
vt 0 1
vt 1 1
vt 1 0
vt 0 0
vt 0 1
vt 1 1
vt 1 0
vt 0 0
vt 0 1
vt 1 1
vt 1 0
vt 0 0
vt 0 1
vt 1 1
vt 1 0
vt 0 0
vt 0 1
vt 1 1
vt 1 0
vt 0 0
vn 0 0 -1
vn 1 0 0
vn 0 0 1
vn -1 0 0
vn 0 1 0
vn 0 -1 0
usemtl m_3a634aa2-0c6f-c486-320b-4c003cefbd71
f 28/76/19 31/75/19 29/74/19 26/73/19
f 27/80/20 28/79/20 26/78/20 25/77/20
usemtl m_02067d04-dc38-01e9-5421-bf0ff9561db9
f 32/84/21 27/83/21 25/82/21 30/81/21
usemtl m_3a634aa2-0c6f-c486-320b-4c003cefbd71
f 31/88/22 32/87/22 30/86/22 29/85/22
f 30/92/23 25/91/23 26/90/23 29/89/23
f 31/96/24 28/95/24 27/94/24 32/93/24
o cube
v 2.875 1.759375 -3.25
v 2.875 1.759375 -3.375
v 2.875 1.509375 -3.25
v 2.875 1.509375 -3.375
v 1.5 1.759375 -3.375
v 1.5 1.759375 -3.25
v 1.5 1.509375 -3.375
v 1.5 1.509375 -3.25
vt 0 1
vt 1 1
vt 1 0
vt 0 0
vt 0 1
vt 1 1
vt 1 0
vt 0 0
vt 0 1
vt 1 1
vt 1 0
vt 0 0
vt 0 1
vt 1 1
vt 1 0
vt 0 0
vt 0 1
vt 1 1
vt 1 0
vt 0 0
vt 0 1
vt 1 1
vt 1 0
vt 0 0
vn 0 0 -1
vn 1 0 0
vn 0 0 1
vn -1 0 0
vn 0 1 0
vn 0 -1 0
usemtl m_02067d04-dc38-01e9-5421-bf0ff9561db9
f 36/100/25 39/99/25 37/98/25 34/97/25
usemtl m_3a634aa2-0c6f-c486-320b-4c003cefbd71
f 35/104/26 36/103/26 34/102/26 33/101/26
f 40/108/27 35/107/27 33/106/27 38/105/27
f 39/112/28 40/111/28 38/110/28 37/109/28
f 38/116/29 33/115/29 34/114/29 37/113/29
usemtl m_02067d04-dc38-01e9-5421-bf0ff9561db9
f 39/120/30 36/119/30 35/118/30 40/117/30
o cube
v 3 0.19687500000000002 -3.375
v 3 0.19687500000000002 -4.875
v 3 0.13437500000000002 -3.375
v 3 0.13437500000000002 -4.875
v 1.375 0.19687500000000002 -4.875
v 1.375 0.19687500000000002 -3.375
v 1.375 0.13437500000000002 -4.875
v 1.375 0.13437500000000002 -3.375
vt 0 1
vt 1 1
vt 1 0
vt 0 0
vt 0 1
vt 1 1
vt 1 0
vt 0 0
vt 0 1
vt 1 1
vt 1 0
vt 0 0
vt 0 1
vt 1 1
vt 1 0
vt 0 0
vt 0 1
vt 1 1
vt 1 0
vt 0 0
vt 0 1
vt 1 1
vt 1 0
vt 0 0
vn 0 0 -1
vn 1 0 0
vn 0 0 1
vn -1 0 0
vn 0 1 0
vn 0 -1 0
usemtl m_02067d04-dc38-01e9-5421-bf0ff9561db9
f 44/124/31 47/123/31 45/122/31 42/121/31
f 43/128/32 44/127/32 42/126/32 41/125/32
f 48/132/33 43/131/33 41/130/33 46/129/33
f 47/136/34 48/135/34 46/134/34 45/133/34
usemtl m_bdc9040d-ca30-af10-3637-4c526ab82e1f
f 46/140/35 41/139/35 42/138/35 45/137/35
usemtl m_3a634aa2-0c6f-c486-320b-4c003cefbd71
f 47/144/36 44/143/36 43/142/36 48/141/36
o cube
v 1.875 0.19687500000000002 -3.25
v 1.875 0.19687500000000002 -3.375
v 1.875 0.13437500000000002 -3.25
v 1.875 0.13437500000000002 -3.375
v 1.4375 0.19687500000000002 -3.375
v 1.4375 0.19687500000000002 -3.25
v 1.4375 0.13437500000000002 -3.375
v 1.4375 0.13437500000000002 -3.25
vt 0 1
vt 1 1
vt 1 0
vt 0 0
vt 0 1
vt 1 1
vt 1 0
vt 0 0
vt 0 1
vt 1 1
vt 1 0
vt 0 0
vt 0 1
vt 1 1
vt 1 0
vt 0 0
vt 0 1
vt 1 1
vt 1 0
vt 0 0
vt 0 1
vt 1 1
vt 1 0
vt 0 0
vn 0 0 -1
vn 1 0 0
vn 0 0 1
vn -1 0 0
vn 0 1 0
vn 0 -1 0
usemtl m_3a634aa2-0c6f-c486-320b-4c003cefbd71
f 52/148/37 55/147/37 53/146/37 50/145/37
f 51/152/38 52/151/38 50/150/38 49/149/38
f 56/156/39 51/155/39 49/154/39 54/153/39
f 55/160/40 56/159/40 54/158/40 53/157/40
usemtl m_bdc9040d-ca30-af10-3637-4c526ab82e1f
f 54/164/41 49/163/41 50/162/41 53/161/41
usemtl m_3a634aa2-0c6f-c486-320b-4c003cefbd71
f 55/168/42 52/167/42 51/166/42 56/165/42
o cube
v 3 1.509375 -3.3125
v 3 1.509375 -4.875
v 3 1.446875 -3.3125
v 3 1.446875 -4.875
v 1.375 1.509375 -4.875
v 1.375 1.509375 -3.3125
v 1.375 1.446875 -4.875
v 1.375 1.446875 -3.3125
vt 0 1
vt 1 1
vt 1 0
vt 0 0
vt 0 1
vt 1 1
vt 1 0
vt 0 0
vt 0 1
vt 1 1
vt 1 0
vt 0 0
vt 0 1
vt 1 1
vt 1 0
vt 0 0
vt 0 1
vt 1 1
vt 1 0
vt 0 0
vt 0 1
vt 1 1
vt 1 0
vt 0 0
vn 0 0 -1
vn 1 0 0
vn 0 0 1
vn -1 0 0
vn 0 1 0
vn 0 -1 0
usemtl m_3a634aa2-0c6f-c486-320b-4c003cefbd71
f 60/172/43 63/171/43 61/170/43 58/169/43
f 59/176/44 60/175/44 58/174/44 57/173/44
f 64/180/45 59/179/45 57/178/45 62/177/45
f 63/184/46 64/183/46 62/182/46 61/181/46
f 62/188/47 57/187/47 58/186/47 61/185/47
usemtl m_02067d04-dc38-01e9-5421-bf0ff9561db9
f 63/192/48 60/191/48 59/190/48 64/189/48
o cube
v 2.25 1.009375 -3.25
v 2.25 1.009375 -3.375
v 2.25 0.1343749999999999 -3.25
v 2.25 0.1343749999999999 -3.375
v 1.875 1.009375 -3.375
v 1.875 1.009375 -3.25
v 1.875 0.1343749999999999 -3.375
v 1.875 0.1343749999999999 -3.25
vt 0 1
vt 1 1
vt 1 0
vt 0 0
vt 0 1
vt 1 1
vt 1 0
vt 0 0
vt 0 1
vt 1 1
vt 1 0
vt 0 0
vt 0 1
vt 1 1
vt 1 0
vt 0 0
vt 0 1
vt 1 1
vt 1 0
vt 0 0
vt 0 1
vt 1 1
vt 1 0
vt 0 0
vn 0 0 -1
vn 1 0 0
vn 0 0 1
vn -1 0 0
vn 0 1 0
vn 0 -1 0
usemtl m_02067d04-dc38-01e9-5421-bf0ff9561db9
f 68/196/49 71/195/49 69/194/49 66/193/49
f 67/200/50 68/199/50 66/198/50 65/197/50
usemtl m_3a634aa2-0c6f-c486-320b-4c003cefbd71
f 72/204/51 67/203/51 65/202/51 70/201/51
usemtl m_02067d04-dc38-01e9-5421-bf0ff9561db9
f 71/208/52 72/207/52 70/206/52 69/205/52
usemtl m_3a634aa2-0c6f-c486-320b-4c003cefbd71
f 70/212/53 65/211/53 66/210/53 69/209/53
f 71/216/54 68/215/54 67/214/54 72/213/54
o cube
v 3.0625 1.009375 -3.25
v 3.0625 1.009375 -3.375
v 3.0625 0.1343749999999999 -3.25
v 3.0625 0.1343749999999999 -3.375
v 2.6875 1.009375 -3.375
v 2.6875 1.009375 -3.25
v 2.6875 0.1343749999999999 -3.375
v 2.6875 0.1343749999999999 -3.25
vt 0 1
vt 1 1
vt 1 0
vt 0 0
vt 0 1
vt 1 1
vt 1 0
vt 0 0
vt 0 1
vt 1 1
vt 1 0
vt 0 0
vt 0 1
vt 1 1
vt 1 0
vt 0 0
vt 0 1
vt 1 1
vt 1 0
vt 0 0
vt 0 1
vt 1 1
vt 1 0
vt 0 0
vn 0 0 -1
vn 1 0 0
vn 0 0 1
vn -1 0 0
vn 0 1 0
vn 0 -1 0
usemtl m_02067d04-dc38-01e9-5421-bf0ff9561db9
f 76/220/55 79/219/55 77/218/55 74/217/55
usemtl m_3a634aa2-0c6f-c486-320b-4c003cefbd71
f 75/224/56 76/223/56 74/222/56 73/221/56
f 80/228/57 75/227/57 73/226/57 78/225/57
usemtl m_02067d04-dc38-01e9-5421-bf0ff9561db9
f 79/232/58 80/231/58 78/230/58 77/229/58
usemtl m_3a634aa2-0c6f-c486-320b-4c003cefbd71
f 78/236/59 73/235/59 74/234/59 77/233/59
f 79/240/60 76/239/60 75/238/60 80/237/60
o cube
v 1.4375 1.571875 -3.25
v 1.4375 1.571875 -3.375
v 1.4375 0.8843749999999999 -3.25
v 1.4375 0.8843749999999999 -3.375
v 1.375 1.571875 -3.375
v 1.375 1.571875 -3.25
v 1.375 0.8843749999999999 -3.375
v 1.375 0.8843749999999999 -3.25
vt 0 1
vt 1 1
vt 1 0
vt 0 0
vt 0 1
vt 1 1
vt 1 0
vt 0 0
vt 0 1
vt 1 1
vt 1 0
vt 0 0
vt 0 1
vt 1 1
vt 1 0
vt 0 0
vt 0 1
vt 1 1
vt 1 0
vt 0 0
vt 0 1
vt 1 1
vt 1 0
vt 0 0
vn 0 0 -1
vn 1 0 0
vn 0 0 1
vn -1 0 0
vn 0 1 0
vn 0 -1 0
usemtl m_02067d04-dc38-01e9-5421-bf0ff9561db9
f 84/244/61 87/243/61 85/242/61 82/241/61
usemtl m_3a634aa2-0c6f-c486-320b-4c003cefbd71
f 83/248/62 84/247/62 82/246/62 81/245/62
f 88/252/63 83/251/63 81/250/63 86/249/63
f 87/256/64 88/255/64 86/254/64 85/253/64
f 86/260/65 81/259/65 82/258/65 85/257/65
f 87/264/66 84/263/66 83/262/66 88/261/66
o cube
v 1.4375 1.571875 -3.375
v 1.4375 1.571875 -4.9375
v 1.4375 0.13437500000000002 -3.375
v 1.4375 0.13437500000000002 -4.9375
v 1.3125 1.571875 -4.9375
v 1.3125 1.571875 -3.375
v 1.3125 0.13437500000000002 -4.9375
v 1.3125 0.13437500000000002 -3.375
vt 0 1
vt 1 1
vt 1 0
vt 0 0
vt 0 1
vt 1 1
vt 1 0
vt 0 0
vt 0 1
vt 1 1
vt 1 0
vt 0 0
vt 0 1
vt 1 1
vt 1 0
vt 0 0
vt 0 1
vt 1 1
vt 1 0
vt 0 0
vt 0 1
vt 1 1
vt 1 0
vt 0 0
vn 0 0 -1
vn 1 0 0
vn 0 0 1
vn -1 0 0
vn 0 1 0
vn 0 -1 0
usemtl m_3a634aa2-0c6f-c486-320b-4c003cefbd71
f 92/268/67 95/267/67 93/266/67 90/265/67
usemtl m_02067d04-dc38-01e9-5421-bf0ff9561db9
f 91/272/68 92/271/68 90/270/68 89/269/68
usemtl m_3a634aa2-0c6f-c486-320b-4c003cefbd71
f 96/276/69 91/275/69 89/274/69 94/273/69
f 95/280/70 96/279/70 94/278/70 93/277/70
f 94/284/71 89/283/71 90/282/71 93/281/71
f 95/288/72 92/287/72 91/286/72 96/285/72
o cube
v 2.1954188175464324 2.4801686253926976 -3.1875
v 2.1954188175464324 2.4801686253926976 -5
v 2.3280013390189103 2.34758610392022 -3.1875
v 2.3280013390189103 2.34758610392022 -5
v 1.0021761242941336 1.2869259321403987 -5
v 1.0021761242941336 1.2869259321403987 -3.1875
v 1.1347586457666112 1.1543434106679211 -5
v 1.1347586457666112 1.1543434106679211 -3.1875
vt 0 1
vt 1 1
vt 1 0
vt 0 0
vt 0 1
vt 1 1
vt 1 0
vt 0 0
vt 0 1
vt 1 1
vt 1 0
vt 0 0
vt 0 1
vt 1 1
vt 1 0
vt 0 0
vt 0 1
vt 1 1
vt 1 0
vt 0 0
vt 0 1
vt 1 1
vt 1 0
vt 0 0
vn 0 0 -1
vn 0.7071067811865475 0.7071067811865476 0
vn 0 0 1
vn -0.7071067811865475 -0.7071067811865476 0
vn -0.7071067811865476 0.7071067811865475 0
vn 0.7071067811865476 -0.7071067811865475 0
usemtl m_bdc9040d-ca30-af10-3637-4c526ab82e1f
f 100/292/73 103/291/73 101/290/73 98/289/73
f 99/296/74 100/295/74 98/294/74 97/293/74
f 104/300/75 99/299/75 97/298/75 102/297/75
f 103/304/76 104/303/76 102/302/76 101/301/76
f 102/308/77 97/307/77 98/306/77 101/305/77
f 103/312/78 100/311/78 99/310/78 104/309/78
o cube
v 2.1070304698981124 2.3033919300960606 -3.1875
v 2.1070304698981124 2.3033919300960606 -5
v 2.23961299137059 2.435974451568539 -3.1875
v 2.23961299137059 2.435974451568539 -5
v 3.256078989326255 1.1543434106679238 -5
v 3.256078989326255 1.1543434106679238 -3.1875
v 3.3886615107987326 1.2869259321404019 -5
v 3.3886615107987326 1.2869259321404019 -3.1875
vt 0 1
vt 1 1
vt 1 0
vt 0 0
vt 0 1
vt 1 1
vt 1 0
vt 0 0
vt 0 1
vt 1 1
vt 1 0
vt 0 0
vt 0 1
vt 1 1
vt 1 0
vt 0 0
vt 0 1
vt 1 1
vt 1 0
vt 0 0
vt 0 1
vt 1 1
vt 1 0
vt 0 0
vn 0 0 -1
vn -0.7071067811865495 0.7071067811865457 0
vn 0 0 1
vn 0.7071067811865495 -0.7071067811865457 0
vn -0.7071067811865457 -0.7071067811865495 0
vn 0.7071067811865457 0.7071067811865495 0
usemtl m_bdc9040d-ca30-af10-3637-4c526ab82e1f
f 108/316/79 111/315/79 109/314/79 106/313/79
f 107/320/80 108/319/80 106/318/80 105/317/80
f 112/324/81 107/323/81 105/322/81 110/321/81
f 111/328/82 112/327/82 110/326/82 109/325/82
f 110/332/83 105/331/83 106/330/83 109/329/83
f 111/336/84 108/335/84 107/334/84 112/333/84
o cube
v 3 1.571875 -3.25
v 3 1.571875 -3.375
v 3 0.8843749999999999 -3.25
v 3 0.8843749999999999 -3.375
v 1.375 1.571875 -3.375
v 1.375 1.571875 -3.25
v 1.375 0.8843749999999999 -3.375
v 1.375 0.8843749999999999 -3.25
vt 0 1
vt 1 1
vt 1 0
vt 0 0
vt 0 1
vt 1 1
vt 1 0
vt 0 0
vt 0 1
vt 1 1
vt 1 0
vt 0 0
vt 0 1
vt 1 1
vt 1 0
vt 0 0
vt 0 1
vt 1 1
vt 1 0
vt 0 0
vt 0 1
vt 1 1
vt 1 0
vt 0 0
vn 0 0 -1
vn 1 0 0
vn 0 0 1
vn -1 0 0
vn 0 1 0
vn 0 -1 0
usemtl m_02067d04-dc38-01e9-5421-bf0ff9561db9
f 116/340/85 119/339/85 117/338/85 114/337/85
usemtl m_3a634aa2-0c6f-c486-320b-4c003cefbd71
f 115/344/86 116/343/86 114/342/86 113/341/86
f 120/348/87 115/347/87 113/346/87 118/345/87
f 119/352/88 120/351/88 118/350/88 117/349/88
f 118/356/89 113/355/89 114/354/89 117/353/89
usemtl m_02067d04-dc38-01e9-5421-bf0ff9561db9
f 119/360/90 116/359/90 115/358/90 120/357/90
o cube
v 2.65625 2.009375 -3.25
v 2.65625 2.009375 -3.375
v 2.65625 1.759375 -3.25
v 2.65625 1.759375 -3.375
v 1.734375 2.009375 -3.375
v 1.734375 2.009375 -3.25
v 1.734375 1.759375 -3.375
v 1.734375 1.759375 -3.25
vt 0 1
vt 1 1
vt 1 0
vt 0 0
vt 0 1
vt 1 1
vt 1 0
vt 0 0
vt 0 1
vt 1 1
vt 1 0
vt 0 0
vt 0 1
vt 1 1
vt 1 0
vt 0 0
vt 0 1
vt 1 1
vt 1 0
vt 0 0
vt 0 1
vt 1 1
vt 1 0
vt 0 0
vn 0 0 -1
vn 1 0 0
vn 0 0 1
vn -1 0 0
vn 0 1 0
vn 0 -1 0
usemtl m_02067d04-dc38-01e9-5421-bf0ff9561db9
f 124/364/91 127/363/91 125/362/91 122/361/91
usemtl m_3a634aa2-0c6f-c486-320b-4c003cefbd71
f 123/368/92 124/367/92 122/366/92 121/365/92
f 128/372/93 123/371/93 121/370/93 126/369/93
f 127/376/94 128/375/94 126/374/94 125/373/94
f 126/380/95 121/379/95 122/378/95 125/377/95
usemtl m_02067d04-dc38-01e9-5421-bf0ff9561db9
f 127/384/96 124/383/96 123/382/96 128/381/96
o cube
v 2.40625 2.259375 -3.25
v 2.40625 2.259375 -3.375
v 2.40625 2.009375 -3.25
v 2.40625 2.009375 -3.375
v 1.984375 2.259375 -3.375
v 1.984375 2.259375 -3.25
v 1.984375 2.009375 -3.375
v 1.984375 2.009375 -3.25
vt 0 1
vt 1 1
vt 1 0
vt 0 0
vt 0 1
vt 1 1
vt 1 0
vt 0 0
vt 0 1
vt 1 1
vt 1 0
vt 0 0
vt 0 1
vt 1 1
vt 1 0
vt 0 0
vt 0 1
vt 1 1
vt 1 0
vt 0 0
vt 0 1
vt 1 1
vt 1 0
vt 0 0
vn 0 0 -1
vn 1 0 0
vn 0 0 1
vn -1 0 0
vn 0 1 0
vn 0 -1 0
usemtl m_02067d04-dc38-01e9-5421-bf0ff9561db9
f 132/388/97 135/387/97 133/386/97 130/385/97
usemtl m_3a634aa2-0c6f-c486-320b-4c003cefbd71
f 131/392/98 132/391/98 130/390/98 129/389/98
f 136/396/99 131/395/99 129/394/99 134/393/99
f 135/400/100 136/399/100 134/398/100 133/397/100
f 134/404/101 129/403/101 130/402/101 133/401/101
usemtl m_02067d04-dc38-01e9-5421-bf0ff9561db9
f 135/408/102 132/407/102 131/406/102 136/405/102
o cube
v 2.40625 2.259375 -4.8125
v 2.40625 2.259375 -4.9375
v 2.40625 2.009375 -4.8125
v 2.40625 2.009375 -4.9375
v 1.984375 2.259375 -4.9375
v 1.984375 2.259375 -4.8125
v 1.984375 2.009375 -4.9375
v 1.984375 2.009375 -4.8125
vt 0 1
vt 1 1
vt 1 0
vt 0 0
vt 0 1
vt 1 1
vt 1 0
vt 0 0
vt 0 1
vt 1 1
vt 1 0
vt 0 0
vt 0 1
vt 1 1
vt 1 0
vt 0 0
vt 0 1
vt 1 1
vt 1 0
vt 0 0
vt 0 1
vt 1 1
vt 1 0
vt 0 0
vn 0 0 -1
vn 1 0 0
vn 0 0 1
vn -1 0 0
vn 0 1 0
vn 0 -1 0
usemtl m_3a634aa2-0c6f-c486-320b-4c003cefbd71
f 140/412/103 143/411/103 141/410/103 138/409/103
f 139/416/104 140/415/104 138/414/104 137/413/104
f 144/420/105 139/419/105 137/418/105 142/417/105
f 143/424/106 144/423/106 142/422/106 141/421/106
f 142/428/107 137/427/107 138/426/107 141/425/107
f 143/432/108 140/431/108 139/430/108 144/429/108
o cube
v 2.65625 2.009375 -4.8125
v 2.65625 2.009375 -4.9375
v 2.65625 1.759375 -4.8125
v 2.65625 1.759375 -4.9375
v 1.734375 2.009375 -4.9375
v 1.734375 2.009375 -4.8125
v 1.734375 1.759375 -4.9375
v 1.734375 1.759375 -4.8125
vt 0 1
vt 1 1
vt 1 0
vt 0 0
vt 0 1
vt 1 1
vt 1 0
vt 0 0
vt 0 1
vt 1 1
vt 1 0
vt 0 0
vt 0 1
vt 1 1
vt 1 0
vt 0 0
vt 0 1
vt 1 1
vt 1 0
vt 0 0
vt 0 1
vt 1 1
vt 1 0
vt 0 0
vn 0 0 -1
vn 1 0 0
vn 0 0 1
vn -1 0 0
vn 0 1 0
vn 0 -1 0
usemtl m_3a634aa2-0c6f-c486-320b-4c003cefbd71
f 148/436/109 151/435/109 149/434/109 146/433/109
f 147/440/110 148/439/110 146/438/110 145/437/110
f 152/444/111 147/443/111 145/442/111 150/441/111
f 151/448/112 152/447/112 150/446/112 149/445/112
f 150/452/113 145/451/113 146/450/113 149/449/113
f 151/456/114 148/455/114 147/454/114 152/453/114
o cube
v 2.875 1.759375 -4.8125
v 2.875 1.759375 -4.9375
v 2.875 1.509375 -4.8125
v 2.875 1.509375 -4.9375
v 1.5 1.759375 -4.9375
v 1.5 1.759375 -4.8125
v 1.5 1.509375 -4.9375
v 1.5 1.509375 -4.8125
vt 0 1
vt 1 1
vt 1 0
vt 0 0
vt 0 1
vt 1 1
vt 1 0
vt 0 0
vt 0 1
vt 1 1
vt 1 0
vt 0 0
vt 0 1
vt 1 1
vt 1 0
vt 0 0
vt 0 1
vt 1 1
vt 1 0
vt 0 0
vt 0 1
vt 1 1
vt 1 0
vt 0 0
vn 0 0 -1
vn 1 0 0
vn 0 0 1
vn -1 0 0
vn 0 1 0
vn 0 -1 0
usemtl m_3a634aa2-0c6f-c486-320b-4c003cefbd71
f 156/460/115 159/459/115 157/458/115 154/457/115
f 155/464/116 156/463/116 154/462/116 153/461/116
f 160/468/117 155/467/117 153/466/117 158/465/117
f 159/472/118 160/471/118 158/470/118 157/469/118
f 158/476/119 153/475/119 154/474/119 157/473/119
f 159/480/120 156/479/120 155/478/120 160/477/120
o cylinder
v 1.4259251370945426e-16 0.1875 1.4259251370945426e-16
v 2.562264152622611 0 9.5625
v 1.8043454805747785 0.1875 6.733909007912357
v 7.000235847377389 0 7.0002358473773905
v 4.929563527337576 0.1875 4.929563527337579
v 9.5625 0 2.562264152622611
v 6.733909007912357 0.1875 1.8043454805747785
v 9.5625 0 -2.562264152622611
v 6.733909007912357 0.1875 -1.8043454805747785
v 7.0002358473773905 0 -7.000235847377389
v 4.929563527337579 0.1875 -4.929563527337576
v 2.562264152622614 0 -9.562499999999998
v 1.8043454805747805 0.1875 -6.733909007912355
v -2.5622641526226064 0 -9.5625
v -1.8043454805747752 0.1875 -6.733909007912357
v -7.000235847377389 0 -7.0002358473773905
v -4.929563527337576 0.1875 -4.929563527337579
v -9.562499999999998 0 -2.562264152622608
v -6.733909007912355 0.1875 -1.804345480574777
v -9.5625 0 2.562264152622607
v -6.733909007912357 0.1875 1.8043454805747752
v -7.0002358473773905 0 7.000235847377389
v -4.929563527337579 0.1875 4.929563527337576
v -2.5622641526226095 0 9.5625
v -1.8043454805747778 0.1875 6.733909007912357
vt 0 -7
vt 4.2872 -7
vt 4.2872 1
vt 0 1
vt 0 -7.282211115396661
vt 4.1410947489905165 -6.172598985018135
vt 1.3322676295501878e-15 1
vt 0 -7
vt 4.2872 -7
vt 4.2872 1
vt 0 1
vt 8.881784197001252e-16 -7.282200306681794
vt 4.141100153340897 -6.172608345643863
vt 0 1
vt 0 -7
vt 4.2872 -7
vt 4.2872 1
vt 0 1
vt 8 -3.2872000000000003
vt 8 1
vt 0 -1.1436000000000002
vt 0 -7
vt 4.2872 -7
vt 4.2872 1
vt 0 1
vt 8.282211115396661 -3.1410947489905165
vt 7.172598985018135 1
vt 0 -3.1410947489905148
vt 0 -7
vt 4.2872 -7
vt 4.2872 1
vt 0 1
vt 8.282200306681794 -3.141100153340896
vt 7.172608345643863 1
vt 0 -3.141100153340897
vt 0 -7
vt 4.2872 -7
vt 4.2872 1
vt 0 1
vt 4.2872 1
vt 0 1
vt 2.1436 -7
vt 0 -7
vt 4.2872 -7
vt 4.2872 1
vt 0 1
vt 4.1410947489905165 1
vt 0 -0.10961213037852602
vt 4.141094748990515 -7.282211115396661
vt 0 -7
vt 4.2872 -7
vt 4.2872 1
vt 0 1
vt 4.141100153340896 1
vt 0 -0.10959196103793101
vt 4.141100153340897 -7.282200306681794
vt 0 -7
vt 4.2872 -7
vt 4.2872 1
vt 0 1
vt 0 1
vt 0 -3.2872000000000003
vt 8 -1.1436000000000002
vt 0 -7
vt 4.2872 -7
vt 4.2872 1
vt 0 1
vt 0 1
vt 1.109612130378526 -3.1410947489905165
vt 8.282211115396661 0.9999999999999987
vt 0 -7
vt 4.2872 -7
vt 4.2872 1
vt 0 1
vt 0 0.9999999999999991
vt 1.109591961037931 -3.141100153340897
vt 8.282200306681794 1
vt 0 -7
vt 4.2872 -7
vt 4.2872 1
vt 0 1
vt 0 -7
vt 4.2872 -7
vt 2.1436 1
vn 0.03307113215625081 0.9978102028299848 0.0572808811584513
vn 0 1 0
vn 0.0572808811584513 0.9978102028299848 0.03307113215625082
vn 0 1 0
vn 0.06614226431250164 0.9978102028299848 0
vn 0 1 0
vn 0.0572808811584513 0.9978102028299848 -0.03307113215625081
vn 0 1 0
vn 0.033071132156250814 0.9978102028299848 -0.0572808811584513
vn 0 1 0
vn 2.2927429918705293e-17 0.9978102028299848 -0.06614226431250166
vn 0 1 0
vn -0.03307113215625078 0.9978102028299848 -0.05728088115845131
vn 0 1 0
vn -0.057280881158451334 0.9978102028299848 -0.033071132156250786
vn 0 1 0
vn -0.06614226431250164 0.9978102028299848 -2.2927429918705318e-17
vn 0 1 0
vn -0.05728088115845131 0.9978102028299848 0.033071132156250786
vn 0 1 0
vn -0.033071132156250814 0.9978102028299848 0.05728088115845132
vn 0 1 0
vn 0 0.9978102028299848 0.06614226431250164
vn 0 1 0
usemtl m_02067d04-dc38-01e9-5421-bf0ff9561db9
f 162/481/121 164/482/121 165/483/121 163/484/121
usemtl m_92e7ec3e-521a-210b-afd6-3e0d658284dd
f 163/485/122 165/486/122 161/487/122
usemtl m_02067d04-dc38-01e9-5421-bf0ff9561db9
f 164/488/123 166/489/123 167/490/123 165/491/123
usemtl m_92e7ec3e-521a-210b-afd6-3e0d658284dd
f 165/492/124 167/493/124 161/494/124
usemtl m_02067d04-dc38-01e9-5421-bf0ff9561db9
f 166/495/125 168/496/125 169/497/125 167/498/125
usemtl m_92e7ec3e-521a-210b-afd6-3e0d658284dd
f 167/499/126 169/500/126 161/501/126
usemtl m_02067d04-dc38-01e9-5421-bf0ff9561db9
f 168/502/127 170/503/127 171/504/127 169/505/127
usemtl m_92e7ec3e-521a-210b-afd6-3e0d658284dd
f 169/506/128 171/507/128 161/508/128
usemtl m_02067d04-dc38-01e9-5421-bf0ff9561db9
f 170/509/129 172/510/129 173/511/129 171/512/129
usemtl m_92e7ec3e-521a-210b-afd6-3e0d658284dd
f 171/513/130 173/514/130 161/515/130
usemtl m_02067d04-dc38-01e9-5421-bf0ff9561db9
f 172/516/131 174/517/131 175/518/131 173/519/131
usemtl m_92e7ec3e-521a-210b-afd6-3e0d658284dd
f 173/520/132 175/521/132 161/522/132
usemtl m_02067d04-dc38-01e9-5421-bf0ff9561db9
f 174/523/133 176/524/133 177/525/133 175/526/133
usemtl m_92e7ec3e-521a-210b-afd6-3e0d658284dd
f 175/527/134 177/528/134 161/529/134
usemtl m_02067d04-dc38-01e9-5421-bf0ff9561db9
f 176/530/135 178/531/135 179/532/135 177/533/135
usemtl m_92e7ec3e-521a-210b-afd6-3e0d658284dd
f 177/534/136 179/535/136 161/536/136
usemtl m_02067d04-dc38-01e9-5421-bf0ff9561db9
f 178/537/137 180/538/137 181/539/137 179/540/137
usemtl m_92e7ec3e-521a-210b-afd6-3e0d658284dd
f 179/541/138 181/542/138 161/543/138
usemtl m_02067d04-dc38-01e9-5421-bf0ff9561db9
f 180/544/139 182/545/139 183/546/139 181/547/139
usemtl m_92e7ec3e-521a-210b-afd6-3e0d658284dd
f 181/548/140 183/549/140 161/550/140
usemtl m_02067d04-dc38-01e9-5421-bf0ff9561db9
f 182/551/141 184/552/141 185/553/141 183/554/141
usemtl m_92e7ec3e-521a-210b-afd6-3e0d658284dd
f 183/555/142 185/556/142 161/557/142
usemtl m_02067d04-dc38-01e9-5421-bf0ff9561db9
f 184/558/143 162/559/143 163/560/143 185/561/143
usemtl m_92e7ec3e-521a-210b-afd6-3e0d658284dd
f 185/562/144 163/563/144 161/564/144